<?xml version="1.0" standalone="no"?><!DOCTYPE svg PUBLIC "-//W3C//DTD SVG 1.1//EN" "http://www.w3.org/Graphics/SVG/1.1/DTD/svg11.dtd"><svg t="1701834329126" class="icon" viewBox="0 0 1024 1024" version="1.1" xmlns="http://www.w3.org/2000/svg" p-id="2889" xmlns:xlink="http://www.w3.org/1999/xlink" width="16" height="16"><path d="M904 848V147.968a27.968 27.968 0 0 0-27.968-27.968H176c0-30.912 25.088-56 56-56h672c30.976 0 56 25.088 56 56v672a56 56 0 0 1-56 56z m-56-616v672a56 56 0 0 1-56 56h-672A56 56 0 0 1 64 904v-672c0-30.912 25.024-56 56-56h672c30.912 0 56 25.088 56 56zM680 400h-448a27.968 27.968 0 0 0 0 55.936h448a27.968 27.968 0 1 0 0-55.936z m0 224h-448a28.032 28.032 0 0 0 0 56h448a27.968 27.968 0 1 0 0-56z" p-id="2890"></path></svg>