<?xml version="1.0" encoding="iso-8859-1"?>
<!-- Generator: Adobe Illustrator 16.0.0, SVG Export Plug-In . SVG Version: 6.00 Build 0)  -->
<!DOCTYPE svg PUBLIC "-//W3C//DTD SVG 1.1//EN" "http://www.w3.org/Graphics/SVG/1.1/DTD/svg11.dtd" [
	<!ENTITY st0 "fill:#332C2B;">
]>
<svg version="1.1" id="&#x56FE;&#x5C42;_1" xmlns="http://www.w3.org/2000/svg" xmlns:xlink="http://www.w3.org/1999/xlink" x="0px"
	 y="0px" width="256px" height="256px" viewBox="288 288 256 256" style="enable-background:new 288 288 256 256;"
	 xml:space="preserve">
<path style="&st0;" d="M348.845,541h7.879c9.635-6.881,4.592-0.817,14.829-14.604c23.118-31.137,31.161-32.706,15.741-53.354
	c-8.259-11.057-16.223-21.635-24.513-32.623c-5.389-7.144-8.788-10.249-2.663-19.381c9.837-14.667,13.043-11.522,22.32,0.698
	l78.896,105.099c13.59,17.929,3.88,6.41,14.368,14.165h7.875c13.338-9.596,9.771-8.219,19.146-30.641
	c4.914-11.751,9.53-23.239,14.43-34.954c11.616-27.784,9.896-20.397-19.869-65.856l-58.772-89.411
	c-8.877-13.593-11.306-16.571-21.36-29.138c-6.583,0.603-8.871,7.471-12.061,12.296c-3.344,5.059-6.399,9.791-9.951,15.247
	l-78.801,119.72c-11.757,17.95-9.559,16.153-1.329,36.369l21.792,52.782c1.298,3.113,2.632,6.424,4.275,8.315
	c1.92,2.211,4.513,3.227,7.109,4.837C348.339,540.66,348.636,540.842,348.845,541L348.845,541z"/>
</svg>
