<?xml version="1.0" encoding="iso-8859-1"?>
<!-- Generator: Adobe Illustrator 16.0.0, SVG Export Plug-In . SVG Version: 6.00 Build 0)  -->
<!DOCTYPE svg PUBLIC "-//W3C//DTD SVG 1.1//EN" "http://www.w3.org/Graphics/SVG/1.1/DTD/svg11.dtd">
<svg version="1.1" id="&#x56FE;&#x5C42;_1" xmlns="http://www.w3.org/2000/svg" xmlns:xlink="http://www.w3.org/1999/xlink" x="0px"
	 y="0px" width="256px" height="256px" viewBox="768 347.5 256 256" style="enable-background:new 768 347.5 256 256;"
	 xml:space="preserve">
<path d="M1020.892,420.709c-1.116,24.33-18.08,57.644-51.003,99.942c-33.984,44.195-62.723,66.293-86.271,66.293
	c-14.564,0-26.897-13.448-36.997-40.345c-19.643-72.097-28.013-114.34-44.251-114.34c-1.897,0-8.426,3.962-19.643,11.774
	l-11.718-15.178c28.794-25.278,56.305-53.403,73.548-54.965c19.475-1.897,31.417,11.439,35.937,39.899
	c16.015,101.282,23.102,116.571,52.231,70.702c10.436-16.518,16.071-29.073,16.853-37.723c2.679-25.613-19.978-23.883-35.323-17.299
	c12.277-40.233,35.77-59.764,70.423-58.648C1010.233,371.491,1022.343,388.176,1020.892,420.709L1020.892,420.709z"/>
</svg>
