<?xml version="1.0" encoding="iso-8859-1"?>
<!-- Generator: Adobe Illustrator 16.0.0, SVG Export Plug-In . SVG Version: 6.00 Build 0)  -->
<!DOCTYPE svg PUBLIC "-//W3C//DTD SVG 1.1//EN" "http://www.w3.org/Graphics/SVG/1.1/DTD/svg11.dtd" [
	<!ENTITY st0 "fill:#12385B;">
]>
<svg version="1.1" id="&#x56FE;&#x5C42;_1" xmlns="http://www.w3.org/2000/svg" xmlns:xlink="http://www.w3.org/1999/xlink" x="0px"
	 y="0px" width="512px" height="512px" viewBox="41.638 164.945 512 512" style="enable-background:new 41.638 164.945 512 512;"
	 xml:space="preserve">
<g id="&#x56FE;&#x5C42;_x0020_1">
	<g id="_357864632">
		<path id="_357864464" style="&st0;" d="M474.125,185.058l-3.179,7.667l-24.909,59.141c2.44-6.815-2.687-13.995-10.01-13.995
			H232.104c-7.566,0-12.696,7.667-9.768,14.601l48.842,116.332c1.712,3.895,5.496,6.446,9.769,6.446h96.955
			c7.568,0,12.573,7.548,9.891,14.486l-3.051,7.298l-24.909,59.264c2.44-6.819-2.564-14.118-10.019-14.118h-31.868
			c-7.568,0-12.695,7.663-9.768,14.602l82.543,196.52c3.539,8.396-2.687,17.644-11.722,17.644h-50.794
			c-5.132,0-9.771-3.039-11.726-7.786l-194.27-462.89c-5.862-13.994,4.396-29.324,19.538-29.324h322.357
			C471.438,170.945,476.562,178.247,474.125,185.058L474.125,185.058z"/>
	</g>
</g>
</svg>
