<?xml version="1.0" encoding="iso-8859-1"?>
<!-- Generator: Adobe Illustrator 16.0.0, SVG Export Plug-In . SVG Version: 6.00 Build 0)  -->
<!DOCTYPE svg PUBLIC "-//W3C//DTD SVG 1.1//EN" "http://www.w3.org/Graphics/SVG/1.1/DTD/svg11.dtd" [
	<!ENTITY st0 "fill:#12385B;">
	<!ENTITY st1 "fill:#E4E5E7;">
	<!ENTITY st2 "fill:#EE4D00;">
	<!ENTITY st3 "fill:#0461FF;">
]>
<svg version="1.1" id="&#x56FE;&#x5C42;_1" xmlns="http://www.w3.org/2000/svg" xmlns:xlink="http://www.w3.org/1999/xlink" x="0px"
	 y="0px" width="832px" height="832px" viewBox="0 0 832 832" style="enable-background:new 0 0 832 832;" xml:space="preserve">
<g id="&#x56FE;&#x5C42;_x0020_1">
	<path style="&st1;" d="M169.194,421.495c17.078-4.348,13.617,2.241,14.39-14.504C171.62,408.554,171.564,409.516,169.194,421.495z"
		/>
	<g id="_47119080">
		<path id="_47118600" style="&st3;" d="M140.698,350.77c-2.196,14.2-7.777,26.917,6.072,45.74
			c7.491,10.18,19.416,19.134,39.254,19.378c75.383,0.924,155.973-0.013,232.004-0.013c14.967,0,109.406-1.63,115.459,1.203
			l1.252-1.143c2.575-6.699,60.654-100.626,67.028-111.729c20.245-35.315,46.056-75.048,67.217-111.096
			c11.149-18.99,22.046-36.461,33.624-55.552c13.533-22.327,19.176-42.76,3.077-67.113c-15.223-23.019-38.194-24.537-64.301-24.537
			H372.974c-26.325,0-48.371-3.056-65.448,23.407c-5.857,9.083-11.182,18.48-16.856,28.193
			c-43.752,74.939-89.425,149.798-133.08,224.553L140.698,350.77L140.698,350.77z"/>
		<path id="_47118840" style="&st0;" d="M533.495,417.085c-3.021,6.764-9.963,16.84-13.966,23.477
			c-4.798,7.946-9.003,14.733-13.768,22.655c-9.226,15.33-18.215,30.357-27.795,46.028l-83.424,138.043
			c-17.638,29.222-48.403,70.977-35.459,105.509c3.331,8.88,9.338,17.052,14.993,21.422c3.39,2.619,6.808,5.062,11.155,7.074
			c3.969,1.83,9.697,2.554,13.793,4.469c71.642-1.191,144.664,0.122,216.485,0.122c42.352,0,61.17,0.971,83.837-24.499
			c20.429-22.956,16.011-56.963,16.011-92.498c0-36.123,0-72.244,0-108.355c0-25.983,3.423-82.864-5.526-103.015
			c-10.644-23.982-32.056-41.648-66.523-41.61c-36.162,0.042-72.404-0.243-108.554,0.037L533.495,417.085L533.495,417.085z"/>
		<path id="_47118552" style="&st2;" d="M399.026,785.769c-4.098-1.915-9.824-2.637-13.795-4.469
			c-4.349-2.014-7.767-4.454-11.156-7.074c-5.656-4.371-11.662-12.535-14.991-21.424c-12.948-34.532,17.818-76.287,35.459-105.502
			l83.42-138.05c9.589-15.667,18.578-30.694,27.795-46.026c4.767-7.917,8.977-14.711,13.769-22.65
			c4.003-6.641,10.95-16.718,13.966-23.481c-6.053-2.832-100.5-1.204-115.46-1.204c-76.029,0-156.618,0.933-232,0.014
			c-19.841-0.243-31.765-9.198-39.257-19.378c-13.85-18.825-8.269-31.544-6.074-45.74c-3.014,4.383-5.67,9.271-8.502,13.963
			c-2.636,4.368-5.986,9.73-8.277,14.746c-5.175,11.329-8.163,24.105-7.907,38.179c0.525,28.833,15.154,47.368,26.458,66.595
			l155.622,262.409c12.891,21.83,21.685,38.916,53.79,39.244C366.963,786.075,384.125,786.541,399.026,785.769L399.026,785.769z"/>
	</g>
</g>
</svg>
