<?xml version="1.0" encoding="iso-8859-1"?>
<!-- Generator: Adobe Illustrator 16.0.0, SVG Export Plug-In . SVG Version: 6.00 Build 0)  -->
<!DOCTYPE svg PUBLIC "-//W3C//DTD SVG 1.1//EN" "http://www.w3.org/Graphics/SVG/1.1/DTD/svg11.dtd" [
	<!ENTITY st0 "fill:#2C2C2C;">
]>
<svg version="1.1" id="&#x56FE;&#x5C42;_1" xmlns="http://www.w3.org/2000/svg" xmlns:xlink="http://www.w3.org/1999/xlink" x="0px"
	 y="0px" width="256px" height="256px" viewBox="0 0 256 256" style="enable-background:new 0 0 256 256;" xml:space="preserve">
<path style="&st0;" d="M128,3.552C59.024,3.552,3.552,59.728,3.552,128c0,68.271,55.464,124.447,124.448,124.447
	c68.984,0,124.448-55.463,124.448-124.447C252.448,59.016,196.271,3.552,128,3.552z M161.41,217.928
	c-8.532,3.796-14.216,5.684-18.96,7.581c-4.745,1.898-10.43,2.847-17.063,2.847c-9.48,0-17.062-2.847-22.746-7.582
	c-5.684-4.733-8.531-11.377-8.531-18.96c0-2.847,0-5.684,0.949-9.48c0-2.847,0.949-6.633,1.898-10.43l10.429-36.971
	c0.949-3.797,1.898-6.632,1.898-10.428c0.949-2.849,0.949-5.685,0.949-8.532c0-4.734-0.949-7.582-2.847-9.48
	c-1.898-1.899-5.684-2.848-10.429-2.848c-2.847,0-5.684,0-8.531,0.949c-2.847,0.95-4.734,1.899-6.632,2.848l2.847-11.378
	c6.633-2.847,13.266-4.734,18.96-7.582c5.085-1.785,10.948-2.826,17.052-2.847h0.01c9.48,0,17.062,2.847,22.746,7.582
	c5.684,4.734,7.581,11.377,7.581,18.96c0,1.898,0,4.734-0.947,8.531c0,3.797-0.95,7.582-1.897,11.378l-9.482,36.021
	c-1.117,3.096-1.806,6.668-1.896,10.388l-0.001,0.042c-0.948,3.796-0.948,6.634-0.948,8.531c0,4.734,0.948,8.532,2.846,10.43
	c1.899,1.898,5.685,2.846,11.38,2.846c2.847,0,5.684,0,8.53-0.947c2.847-0.95,5.685-1.898,6.633-1.898L161.41,217.928
	L161.41,217.928z M159.512,67.215c-4.734,4.735-10.43,6.633-17.062,6.633c-6.633,0-12.328-1.898-17.063-6.633
	c-4.097-4.032-6.635-9.637-6.635-15.834c0-0.098,0.001-0.196,0.002-0.293v0.015c0-6.633,2.848-12.328,6.633-16.113
	c4.734-4.735,10.429-6.633,17.062-6.633c6.632,0,12.327,1.898,17.062,6.633c4.735,3.796,7.583,9.48,7.583,16.113
	C167.095,57.734,164.247,63.429,159.512,67.215L159.512,67.215z"/>
</svg>
