<?xml version="1.0" encoding="utf-8"?>
<!-- Generator: Adobe Illustrator 16.0.0, SVG Export Plug-In . SVG Version: 6.00 Build 0)  -->
<!DOCTYPE svg PUBLIC "-//W3C//DTD SVG 1.1//EN" "http://www.w3.org/Graphics/SVG/1.1/DTD/svg11.dtd" [
	<!ENTITY ns_extend "http://ns.adobe.com/Extensibility/1.0/">
	<!ENTITY ns_ai "http://ns.adobe.com/AdobeIllustrator/10.0/">
	<!ENTITY ns_graphs "http://ns.adobe.com/Graphs/1.0/">
	<!ENTITY ns_vars "http://ns.adobe.com/Variables/1.0/">
	<!ENTITY ns_imrep "http://ns.adobe.com/ImageReplacement/1.0/">
	<!ENTITY ns_sfw "http://ns.adobe.com/SaveForWeb/1.0/">
	<!ENTITY ns_custom "http://ns.adobe.com/GenericCustomNamespace/1.0/">
	<!ENTITY ns_adobe_xpath "http://ns.adobe.com/XPath/1.0/">
]>
<svg version="1.1" id="图层_1" xmlns:x="&ns_extend;" xmlns:i="&ns_ai;" xmlns:graph="&ns_graphs;"
	 xmlns="http://www.w3.org/2000/svg" xmlns:xlink="http://www.w3.org/1999/xlink" x="0px" y="0px" width="256px" height="256px"
	 viewBox="0 0 256 256" style="enable-background:new 0 0 256 256;" xml:space="preserve">
<metadata>
	<sfw  xmlns="&ns_sfw;">
		<slices></slices>
		<sliceSourceBounds  height="256" width="256" x="-0.5" y="0.5" bottomLeftOrigin="true"></sliceSourceBounds>
	</sfw>
</metadata>
<path d="M36.571,0C16.4,0,0,16.4,0,36.571v182.857C0,239.602,16.4,256,36.571,256h182.857C239.602,256,256,239.602,256,219.43
	V36.571C256,16.4,239.602,0,219.43,0H36.571z M141.187,120.954c0,21.783,14.843,39.439,33.157,39.439
	c18.312,0,33.155-17.656,33.155-39.439c0-21.781-14.844-39.439-33.155-39.439C156.031,81.515,141.187,99.173,141.187,120.954z
	 M174.344,184.058c-29.299,0-53.052-28.253-53.052-63.104c0-34.852,23.753-63.104,53.052-63.104
	c29.297,0,53.049,28.252,53.049,63.104C227.393,155.805,203.641,184.058,174.344,184.058z M56.58,90.774
	c-12.736,15.148-12.736,39.766,0,54.916c12.736,15.149,33.432,15.149,46.167,0c3.838-4.563,10.042-4.563,13.838,0
	c3.797,4.563,3.838,11.944,0,16.461c-20.41,24.278-53.475,24.278-73.885,0c-20.411-24.278-20.411-63.607,0-87.885
	c20.41-24.277,53.475-24.277,73.885,0c3.838,4.563,3.838,11.944,0,16.459c-3.836,4.516-10.042,4.565-13.838,0
	c-12.735-15.148-33.433-15.148-46.167,0V90.774z"/>
</svg>
