<?xml version="1.0" encoding="utf-8"?>
<!-- Generator: Adobe Illustrator 16.0.0, SVG Export Plug-In . SVG Version: 6.00 Build 0)  -->
<!DOCTYPE svg PUBLIC "-//W3C//DTD SVG 1.1//EN" "http://www.w3.org/Graphics/SVG/1.1/DTD/svg11.dtd" [
	<!ENTITY ns_extend "http://ns.adobe.com/Extensibility/1.0/">
	<!ENTITY ns_ai "http://ns.adobe.com/AdobeIllustrator/10.0/">
	<!ENTITY ns_graphs "http://ns.adobe.com/Graphs/1.0/">
	<!ENTITY ns_vars "http://ns.adobe.com/Variables/1.0/">
	<!ENTITY ns_imrep "http://ns.adobe.com/ImageReplacement/1.0/">
	<!ENTITY ns_sfw "http://ns.adobe.com/SaveForWeb/1.0/">
	<!ENTITY ns_custom "http://ns.adobe.com/GenericCustomNamespace/1.0/">
	<!ENTITY ns_adobe_xpath "http://ns.adobe.com/XPath/1.0/">
]>
<svg version="1.1" id="图层_1" xmlns:x="&ns_extend;" xmlns:i="&ns_ai;" xmlns:graph="&ns_graphs;"
	 xmlns="http://www.w3.org/2000/svg" xmlns:xlink="http://www.w3.org/1999/xlink" x="0px" y="0px" width="256px" height="256px"
	 viewBox="0 0 256 256" style="enable-background:new 0 0 256 256;" xml:space="preserve">
<metadata>
	<sfw  xmlns="&ns_sfw;">
		<slices></slices>
		<sliceSourceBounds  height="256" width="256" x="-0.5" y="0.5" bottomLeftOrigin="true"></sliceSourceBounds>
	</sfw>
</metadata>
<path d="M36.571,0C16.4,0,0,16.4,0,36.571v182.857C0,239.602,16.4,256,36.571,256h182.857C239.602,256,256,239.602,256,219.43
	V36.571C256,16.4,239.602,0,219.43,0H36.571z M40.138,69.144h71.111c6.568,0,11.852,5.35,11.852,12c0,6.65-5.284,12-11.852,12H51.99
	v32h43.457c6.568,0,11.852,5.35,11.852,12c0,6.65-5.284,12.001-11.852,12.001H51.99v36c0,6.65-5.284,12-11.852,12
	s-11.852-5.35-11.852-12v-48v-56C28.286,74.494,33.57,69.144,40.138,69.144z M145.323,69.144h35.555h35.557
	c6.568,0,11.852,5.35,11.852,12c0,6.65-5.283,12-11.852,12H192.73v80h23.704c6.568,0,11.852,5.35,11.852,11.999
	c0,6.651-5.283,12.001-11.852,12.001h-71.111c-6.569,0-11.852-5.35-11.852-12.001c0-6.649,5.282-11.999,11.852-11.999h23.704V93.144
	h-23.704c-6.569,0-11.852-5.351-11.852-12C133.472,74.494,138.754,69.144,145.323,69.144z"/>
</svg>
