<?xml version="1.0" encoding="utf-8"?>
<!-- Generator: Adobe Illustrator 16.0.0, SVG Export Plug-In . SVG Version: 6.00 Build 0)  -->
<!DOCTYPE svg PUBLIC "-//W3C//DTD SVG 1.1//EN" "http://www.w3.org/Graphics/SVG/1.1/DTD/svg11.dtd" [
	<!ENTITY ns_extend "http://ns.adobe.com/Extensibility/1.0/">
	<!ENTITY ns_ai "http://ns.adobe.com/AdobeIllustrator/10.0/">
	<!ENTITY ns_graphs "http://ns.adobe.com/Graphs/1.0/">
	<!ENTITY ns_vars "http://ns.adobe.com/Variables/1.0/">
	<!ENTITY ns_imrep "http://ns.adobe.com/ImageReplacement/1.0/">
	<!ENTITY ns_sfw "http://ns.adobe.com/SaveForWeb/1.0/">
	<!ENTITY ns_custom "http://ns.adobe.com/GenericCustomNamespace/1.0/">
	<!ENTITY ns_adobe_xpath "http://ns.adobe.com/XPath/1.0/">
]>
<svg version="1.1" id="图层_1" xmlns:x="&ns_extend;" xmlns:i="&ns_ai;" xmlns:graph="&ns_graphs;"
	 xmlns="http://www.w3.org/2000/svg" xmlns:xlink="http://www.w3.org/1999/xlink" x="0px" y="0px" width="256px" height="256px"
	 viewBox="0 0 256 256" style="enable-background:new 0 0 256 256;" xml:space="preserve">
<metadata>
	<sfw  xmlns="&ns_sfw;">
		<slices></slices>
		<sliceSourceBounds  height="220" width="240" x="7.5" y="18.5" bottomLeftOrigin="true"></sliceSourceBounds>
	</sfw>
</metadata>
<path d="M58,18C30.375,18,8,40.375,8,68v120c0,27.625,22.375,50,50,50h140c27.625,0,50-22.375,50-50V68c0-27.625-22.375-50-50-50H58
	z M58,58h140c5.5,0,10,4.5,10,10v20c0,5.5-4.5,10-10,10H58c-5.5,0-10-4.5-10-10V68C48,62.5,52.5,58,58,58z M78,138
	c0,8.283-6.716,15-15,15s-15-6.717-15-15s6.716-15,15-15S78,129.717,78,138z M128,153c-8.284,0-15-6.717-15-15s6.716-15,15-15
	c8.283,0,15,6.717,15,15S136.283,153,128,153z M208,138c0,8.283-6.717,15-15,15s-15-6.717-15-15s6.717-15,15-15S208,129.717,208,138
	z M63,208c-8.284,0-15-6.717-15-15s6.716-15,15-15s15,6.717,15,15S71.284,208,63,208z M143,193c0,8.283-6.717,15-15,15
	c-8.284,0-15-6.717-15-15s6.716-15,15-15C136.283,178,143,184.717,143,193z M193,208c-8.283,0-15-6.717-15-15s6.717-15,15-15
	s15,6.717,15,15S201.283,208,193,208z"/>
</svg>
