<?xml version="1.0" encoding="utf-8"?>
<!-- Generator: Adobe Illustrator 16.0.0, SVG Export Plug-In . SVG Version: 6.00 Build 0)  -->
<!DOCTYPE svg PUBLIC "-//W3C//DTD SVG 1.1//EN" "http://www.w3.org/Graphics/SVG/1.1/DTD/svg11.dtd" [
	<!ENTITY st0 "fill:#F5A625;">
]>
<svg version="1.1" id="图层_1" xmlns="http://www.w3.org/2000/svg" xmlns:xlink="http://www.w3.org/1999/xlink" x="0px" y="0px"
	 width="200px" height="200px" viewBox="0 0 200 200" style="enable-background:new 0 0 200 200;" xml:space="preserve">
<path style="&st0;" d="M99.73,66.27c-9.475,0.003-17.153,7.686-17.15,17.16c0.002,9.474,7.686,17.153,17.16,17.15
	s17.152-7.686,17.15-17.16c0.002-9.469-7.672-17.147-17.141-17.15C99.743,66.27,99.737,66.27,99.73,66.27L99.73,66.27z"/>
<path style="&st0;" d="M100,0C44.771,0,0,44.771,0,100s44.771,100,100,100s100-44.771,100-100S155.229,0,100,0z M106.965,155.221
	l-1.025,1.264c-2.635,3.281-7.432,3.804-10.712,1.168c-0.43-0.346-0.821-0.737-1.167-1.168l-1.025-1.264
	C79.24,138.025,53.57,106.02,53.57,87.125C53.611,61.508,74.363,40.75,99.98,40.7c1.034-0.034,2.069-0.034,3.105,0
	c24.782,0.857,44.177,21.643,43.319,46.425C146.404,106.016,120.734,138.02,106.965,155.221z"/>
</svg>
