<?xml version="1.0" encoding="iso-8859-1"?>
<!-- Generator: Adobe Illustrator 16.0.0, SVG Export Plug-In . SVG Version: 6.00 Build 0)  -->
<!DOCTYPE svg PUBLIC "-//W3C//DTD SVG 1.1//EN" "http://www.w3.org/Graphics/SVG/1.1/DTD/svg11.dtd">
<svg version="1.1" id="&#x56FE;&#x5C42;_1" xmlns="http://www.w3.org/2000/svg" xmlns:xlink="http://www.w3.org/1999/xlink" x="0px"
	 y="0px" width="256px" height="256px" viewBox="0 0 256 256" style="enable-background:new 0 0 256 256;" xml:space="preserve">
<path d="M183.519,210.432c0.227-2.908-2.869-5.406-6.943-5.604H79.348c-4.076,0.199-7.171,2.695-6.942,5.604v22.385H2.973v16.797
	h250v-16.797h-69.436L183.519,210.432z M239.359,6.386l-0.084,0.029H16.641C7.417,6.47-0.023,13.974,0,23.197v156.743
	c-0.016,9.22,7.421,16.72,16.641,16.783h222.718c9.224-0.056,16.664-7.561,16.642-16.783V23.168
	C256.023,13.945,248.582,6.44,239.359,6.386z M58.943,178.747c0,2.806-2.175,5.103-4.833,5.103H32.833
	c-2.657,0-4.833-2.297-4.833-5.103v-37.42c0-2.806,2.176-5.103,4.833-5.103h21.276c2.659,0,4.833,2.297,4.833,5.103L58.943,178.747
	L58.943,178.747z M113.08,178.747c0,2.806-2.175,5.103-4.834,5.103H86.971c-2.659,0-4.834-2.297-4.834-5.103v-77.992
	c0-2.806,2.175-5.102,4.834-5.102h21.275c2.659,0,4.834,2.296,4.834,5.102V178.747z M169.635,178.747
	c0,2.806-2.177,5.103-4.834,5.103h-21.277c-2.657,0-4.832-2.297-4.832-5.103V38.951c0-2.806,2.175-5.102,4.832-5.102h21.277
	c2.657,0,4.834,2.296,4.834,5.102V178.747z M228,178.747c0,2.806-2.176,5.103-4.833,5.103h-21.276c-2.658,0-4.834-2.297-4.834-5.103
	V70.294c0-2.806,2.176-5.103,4.834-5.103h21.276c2.657,0,4.833,2.296,4.833,5.103V178.747L228,178.747z"/>
</svg>
