<?xml version="1.0" encoding="utf-8"?>
<!-- Generator: Adobe Illustrator 16.0.0, SVG Export Plug-In . SVG Version: 6.00 Build 0)  -->
<!DOCTYPE svg PUBLIC "-//W3C//DTD SVG 1.1//EN" "http://www.w3.org/Graphics/SVG/1.1/DTD/svg11.dtd" [
	<!ENTITY st0 "fill:#FF8848;">
]>
<svg version="1.1" id="图层_1" xmlns="http://www.w3.org/2000/svg" xmlns:xlink="http://www.w3.org/1999/xlink" x="0px" y="0px"
	 width="200px" height="200px" viewBox="0 0 200 200" style="enable-background:new 0 0 200 200;" xml:space="preserve">
<path style="&st0;" d="M170.603,29.44c39.061,39.06,39.262,102.354,0.192,141.403c-39.05,39.069-102.537,39.069-141.587,0
	C-9.862,131.795-9.68,68.5,29.4,29.44C68.451-9.619,131.552-9.619,170.603,29.44z M137.012,94.629h-18.997l25.303-48.688h-24.743
	l-16.387,33.358c-1.888,4.016-3.322,6.654-4.353,10.193c-0.866-3.272-2.291-5.89-4.342-10.193L77.434,45.932H52.69L77.665,94.62
	H61.269v19.763h26.958v7.933H61.269v19.465h26.958v21.072h21.72V141.78h27.065v-19.455h-27.055v-7.934h27.055V94.639V94.629z"/>
</svg>
