<?xml version="1.0" encoding="utf-8"?>
<!-- Generator: Adobe Illustrator 16.0.0, SVG Export Plug-In . SVG Version: 6.00 Build 0)  -->
<!DOCTYPE svg PUBLIC "-//W3C//DTD SVG 1.1//EN" "http://www.w3.org/Graphics/SVG/1.1/DTD/svg11.dtd">
<svg version="1.1" id="图层_1" xmlns="http://www.w3.org/2000/svg" xmlns:xlink="http://www.w3.org/1999/xlink" x="0px" y="0px"
	 width="256px" height="256px" viewBox="0 0 256 256" enable-background="new 0 0 256 256" xml:space="preserve">
<path d="M100.467,1.126h62.27c5.689,0,10.513,4.448,10.629,10.166c0.173,5.892-4.563,10.687-10.427,10.687h-62.24
	c-5.689,0-10.513-4.448-10.629-10.167C89.896,5.949,94.633,1.126,100.467,1.126z"/>
<path d="M238.897,1.097h-28.304c-4.766,0-9.271,1.646-12.621,4.592l-25.244,22.209c-3.35,2.946-7.913,4.592-12.621,4.592h-56.666
	c-4.766,0-9.271-1.646-12.621-4.592L65.578,5.689c-3.35-2.946-7.914-4.592-12.622-4.592H24.652c-9.849,0-17.877,7.047-17.877,15.683
	V236.57c0,8.664,8,15.683,17.877,15.683h214.245c9.85,0,17.878-7.047,17.878-15.683V16.78
	C256.747,8.145,248.747,1.097,238.897,1.097z M198.116,183.37H65.318c-9.329,0-16.924-7.597-16.924-16.926
	c0-9.327,7.595-16.924,16.924-16.924h132.769c9.329,0,16.926,7.597,16.926,16.924C215.013,175.773,207.445,183.37,198.116,183.37z
	 M198.116,110.472H65.318c-9.329,0-16.924-7.596-16.924-16.925c0-9.329,7.595-16.924,16.924-16.924h132.769
	c9.329,0,16.926,7.596,16.926,16.924C215.013,102.876,207.445,110.472,198.116,110.472z"/>
</svg>
