<?xml version="1.0" encoding="iso-8859-1"?>
<!-- Generator: Adobe Illustrator 16.0.0, SVG Export Plug-In . SVG Version: 6.00 Build 0)  -->
<!DOCTYPE svg PUBLIC "-//W3C//DTD SVG 1.1//EN" "http://www.w3.org/Graphics/SVG/1.1/DTD/svg11.dtd" [
	<!ENTITY st0 "fill:#272636;">
]>
<svg version="1.1" id="&#x56FE;&#x5C42;_1" xmlns="http://www.w3.org/2000/svg" xmlns:xlink="http://www.w3.org/1999/xlink" x="0px"
	 y="0px" width="256px" height="256px" viewBox="76.875 0 256 256" style="enable-background:new 76.875 0 256 256;"
	 xml:space="preserve">
<path style="&st0;" d="M84.875,25.6c0-14.139,11.318-25.6,25.5-25.6c14.083,0,25.5,11.363,25.5,25.6c0,14.138-11.319,25.6-25.5,25.6
	C96.292,51.2,84.875,39.837,84.875,25.6z M140.8,25.6c0-14.139,7.292-25.6,16.04-25.6h159.921c8.858,0,16.039,11.363,16.039,25.6
	c0,14.138-7.292,25.6-16.039,25.6H156.839C147.981,51.2,140.8,39.837,140.8,25.6z M111.991,128c0-11.046,8.843-20,19.922-20
	c11.002,0,19.922,8.877,19.922,20c0,11.046-8.843,20-19.922,20C120.911,148,111.991,139.122,111.991,128z M155.683,128
	c0-11.046,5.697-20,12.531-20h124.939c6.92,0,12.53,8.877,12.53,20c0,11.046-5.697,20-12.53,20H168.214
	C161.293,148,155.683,139.122,155.683,128z M84.875,230.4c0-14.139,11.318-25.601,25.5-25.601c14.083,0,25.5,11.363,25.5,25.601
	c0,14.139-11.319,25.6-25.5,25.6C96.292,256,84.875,244.637,84.875,230.4z M140.8,230.4c0-14.139,7.292-25.601,16.04-25.601h159.921
	c8.858,0,16.039,11.363,16.039,25.601c0,14.139-7.292,25.6-16.039,25.6H156.839C147.981,256,140.8,244.637,140.8,230.4z"/>
</svg>
