<?xml version="1.0" encoding="iso-8859-1"?>
<!-- Generator: Adobe Illustrator 16.0.0, SVG Export Plug-In . SVG Version: 6.00 Build 0)  -->
<!DOCTYPE svg PUBLIC "-//W3C//DTD SVG 1.1//EN" "http://www.w3.org/Graphics/SVG/1.1/DTD/svg11.dtd" [
	<!ENTITY st0 "fill:#2C2C2C;">
]>
<svg version="1.1" id="&#x56FE;&#x5C42;_1" xmlns="http://www.w3.org/2000/svg" xmlns:xlink="http://www.w3.org/1999/xlink" x="0px"
	 y="0px" width="256px" height="256px" viewBox="0 0 256 256" style="enable-background:new 0 0 256 256;" xml:space="preserve">
<path style="&st0;" d="M36.576,0h182.848C239.625,0,256,16.375,256,36.576v182.848C256,239.625,239.625,256,219.424,256H36.576
	C16.375,256,0,239.625,0,219.424l0,0V36.576C0,16.375,16.375,0,36.576,0z M64,48c-8.836,0-16,7.164-16,16s7.164,16,16,16
	s16-7.164,16-16S72.836,48,64,48z M128,48c-8.836,0-16,7.164-16,16s7.164,16,16,16c8.836,0,16-7.164,16-16S136.836,48,128,48z
	 M192,48c-8.836,0-16,7.164-16,16s7.164,16,16,16s16-7.164,16-16S200.836,48,192,48z M64,112c-8.836,0-16,7.164-16,16
	c0,8.836,7.164,16,16,16h128c8.836,0,16-7.164,16-16c0-8.836-7.164-16-16-16H64z M64,176c-8.836,0-16,7.164-16,16s7.164,16,16,16h96
	c8.836,0,16-7.164,16-16s-7.164-16-16-16H64z"/>
</svg>
