<?xml version="1.0" encoding="iso-8859-1"?>
<!-- Generator: Adobe Illustrator 16.0.0, SVG Export Plug-In . SVG Version: 6.00 Build 0)  -->
<!DOCTYPE svg PUBLIC "-//W3C//DTD SVG 1.1//EN" "http://www.w3.org/Graphics/SVG/1.1/DTD/svg11.dtd">
<svg version="1.1" id="&#x56FE;&#x5C42;_1" xmlns="http://www.w3.org/2000/svg" xmlns:xlink="http://www.w3.org/1999/xlink" x="0px"
	 y="0px" width="256px" height="256px" viewBox="0 0 256 256" style="enable-background:new 0 0 256 256;" xml:space="preserve">
<path d="M253,49.875v156.25c0,12.919-4.575,23.967-13.756,33.119c-9.179,9.181-20.2,13.756-33.119,13.756H49.875
	c-12.919,0-23.968-4.575-33.119-13.756C7.576,230.065,3,219.044,3,206.125V49.875c0-12.919,4.576-23.94,13.756-33.119
	C25.907,7.576,36.956,3,49.875,3h156.25c12.919,0,23.94,4.576,33.119,13.756C248.425,25.935,253,36.956,253,49.875z M84.034,228.656
	l107.07-107.07l-56.69-56.69L27.345,171.966v56.69H84.034z M56.499,169.604l29.932,29.93L76.172,209.76H65.138v-18.896H46.241
	v-11.035L56.499,169.604z M137.99,92.836c1.823,1.722,1.653,3.678-0.607,5.906l-57.264,57.262c-2.227,2.229-4.184,2.431-5.905,0.609
	c-1.856-1.688-1.653-3.679,0.607-5.906l57.264-57.297C134.313,91.184,136.27,90.98,137.99,92.836z M203.724,108.966l18.121-18.12
	c3.678-3.679,5.5-8.133,5.5-13.397c0-5.264-1.822-9.717-5.5-13.396l-29.932-29.897c-3.678-3.678-8.133-5.5-13.396-5.5
	s-9.718,1.856-13.396,5.5l-18.088,18.12L203.724,108.966z"/>
</svg>
