<?xml version="1.0" encoding="utf-8"?>
<!-- Generator: Adobe Illustrator 16.0.0, SVG Export Plug-In . SVG Version: 6.00 Build 0)  -->
<!DOCTYPE svg PUBLIC "-//W3C//DTD SVG 1.1//EN" "http://www.w3.org/Graphics/SVG/1.1/DTD/svg11.dtd" [
	<!ENTITY ns_extend "http://ns.adobe.com/Extensibility/1.0/">
	<!ENTITY ns_ai "http://ns.adobe.com/AdobeIllustrator/10.0/">
	<!ENTITY ns_graphs "http://ns.adobe.com/Graphs/1.0/">
	<!ENTITY ns_vars "http://ns.adobe.com/Variables/1.0/">
	<!ENTITY ns_imrep "http://ns.adobe.com/ImageReplacement/1.0/">
	<!ENTITY ns_sfw "http://ns.adobe.com/SaveForWeb/1.0/">
	<!ENTITY ns_custom "http://ns.adobe.com/GenericCustomNamespace/1.0/">
	<!ENTITY ns_adobe_xpath "http://ns.adobe.com/XPath/1.0/">
]>
<svg version="1.1" id="图层_1" xmlns:x="&ns_extend;" xmlns:i="&ns_ai;" xmlns:graph="&ns_graphs;"
	 xmlns="http://www.w3.org/2000/svg" xmlns:xlink="http://www.w3.org/1999/xlink" x="0px" y="0px" width="256px" height="256px"
	 viewBox="0 0 256 256" style="enable-background:new 0 0 256 256;" xml:space="preserve">
<metadata>
	<sfw  xmlns="&ns_sfw;">
		<slices></slices>
		<sliceSourceBounds  height="256" width="256" x="-0.5" y="0.5" bottomLeftOrigin="true"></sliceSourceBounds>
	</sfw>
</metadata>
<path d="M36.571,0C16.4,0,0,16.4,0,36.571v182.857C0,239.602,16.4,256,36.571,256h182.857C239.602,256,256,239.602,256,219.43
	V36.571C256,16.4,239.602,0,219.43,0H36.571z M75.133,69.192c3.469,0,6.632,2.547,8.196,6.644l39.649,103.903
	c2.25,5.943,0.418,13.137-4.079,16.086c-4.5,2.946-10.028,0.55-12.276-5.345l-6.635-17.385H50.276l-6.633,17.333
	c-2.25,5.946-7.74,8.344-12.277,5.347c-4.537-2.998-6.367-10.142-4.079-16.086l39.65-103.904c1.563-4.046,4.727-6.644,8.196-6.644
	V69.192z M75.133,108.005l-15.708,41.113h31.376L75.133,108.005z M145.257,74.203l32.242,58.496l32.241-58.496
	c2.328-4.196,6.449-5.995,10.227-4.396c3.776,1.599,6.334,6.194,6.334,11.39v103.955c0,6.645-4.085,11.99-9.157,11.99
	c-5.075,0-9.158-5.346-9.158-11.99v-66.838l-23.084,41.861c-1.717,3.098-4.466,4.945-7.44,4.945c-2.978,0-5.686-1.85-7.44-4.945
	l-23.049-41.861v66.838c0,6.645-4.082,11.99-9.157,11.99c-5.073,0-9.156-5.346-9.156-11.99V81.246c0-5.195,2.557-9.791,6.334-11.389
	c3.777-1.599,7.897,0.149,10.226,4.395L145.257,74.203z"/>
</svg>
