<?xml version="1.0" encoding="utf-8"?>
<!-- Generator: Adobe Illustrator 16.0.0, SVG Export Plug-In . SVG Version: 6.00 Build 0)  -->
<!DOCTYPE svg PUBLIC "-//W3C//DTD SVG 1.1//EN" "http://www.w3.org/Graphics/SVG/1.1/DTD/svg11.dtd" [
	<!ENTITY ns_extend "http://ns.adobe.com/Extensibility/1.0/">
	<!ENTITY ns_ai "http://ns.adobe.com/AdobeIllustrator/10.0/">
	<!ENTITY ns_graphs "http://ns.adobe.com/Graphs/1.0/">
	<!ENTITY ns_vars "http://ns.adobe.com/Variables/1.0/">
	<!ENTITY ns_imrep "http://ns.adobe.com/ImageReplacement/1.0/">
	<!ENTITY ns_sfw "http://ns.adobe.com/SaveForWeb/1.0/">
	<!ENTITY ns_custom "http://ns.adobe.com/GenericCustomNamespace/1.0/">
	<!ENTITY ns_adobe_xpath "http://ns.adobe.com/XPath/1.0/">
]>
<svg version="1.1" id="图层_1" xmlns:x="&ns_extend;" xmlns:i="&ns_ai;" xmlns:graph="&ns_graphs;"
	 xmlns="http://www.w3.org/2000/svg" xmlns:xlink="http://www.w3.org/1999/xlink" x="0px" y="0px" width="256px" height="256px"
	 viewBox="0 0 256 256" style="enable-background:new 0 0 256 256;" xml:space="preserve">
<metadata>
	<sfw  xmlns="&ns_sfw;">
		<slices></slices>
		<sliceSourceBounds  height="256" width="256" x="-0.5" y="0.5" bottomLeftOrigin="true"></sliceSourceBounds>
	</sfw>
</metadata>
<path d="M36.571,0C16.4,0,0,16.4,0,36.571v182.857C0,239.602,16.4,256,36.571,256h182.857C239.602,256,256,239.602,256,219.43
	V36.571C256,16.4,239.602,0,219.43,0H36.571z M147.782,68.977l32.022,58.536l32.024-58.536c2.311-4.199,6.401-5.999,10.154-4.398
	c3.752,1.599,6.292,6.197,6.292,11.396v104.026c0,6.649-4.056,11.999-9.097,11.999c-5.039,0-9.094-5.35-9.094-11.999v-66.882
	l-22.928,41.889c-1.705,3.102-4.435,4.946-7.391,4.946c-2.958,0-5.646-1.847-7.39-4.946l-22.891-41.889v66.882
	c0,6.649-4.057,11.999-9.096,11.999c-5.036,0-9.094-5.35-9.094-11.999V76.026c0-5.199,2.536-9.796,6.288-11.398
	c3.753-1.6,7.845,0.15,10.159,4.398L147.782,68.977z M39.466,64h42.894c23.684,0,42.894,20.6,42.894,46c0,25.4-19.209,46-42.894,46
	H50.655v24.001c0,6.649-4.99,11.999-11.189,11.999c-6.201,0-11.19-5.35-11.19-11.999V144V76C28.275,69.351,33.265,64,39.466,64z
	 M82.359,131.999c11.33,0,20.515-9.849,20.515-22s-9.185-22-20.515-22H50.655v44H82.359z"/>
</svg>
