<?xml version="1.0" encoding="utf-8"?>
<!-- Generator: Adobe Illustrator 16.0.0, SVG Export Plug-In . SVG Version: 6.00 Build 0)  -->
<!DOCTYPE svg PUBLIC "-//W3C//DTD SVG 1.1//EN" "http://www.w3.org/Graphics/SVG/1.1/DTD/svg11.dtd" [
	<!ENTITY ns_extend "http://ns.adobe.com/Extensibility/1.0/">
	<!ENTITY ns_ai "http://ns.adobe.com/AdobeIllustrator/10.0/">
	<!ENTITY ns_graphs "http://ns.adobe.com/Graphs/1.0/">
	<!ENTITY ns_vars "http://ns.adobe.com/Variables/1.0/">
	<!ENTITY ns_imrep "http://ns.adobe.com/ImageReplacement/1.0/">
	<!ENTITY ns_sfw "http://ns.adobe.com/SaveForWeb/1.0/">
	<!ENTITY ns_custom "http://ns.adobe.com/GenericCustomNamespace/1.0/">
	<!ENTITY ns_adobe_xpath "http://ns.adobe.com/XPath/1.0/">
]>
<svg version="1.1" id="图层_1" xmlns:x="&ns_extend;" xmlns:i="&ns_ai;" xmlns:graph="&ns_graphs;"
	 xmlns="http://www.w3.org/2000/svg" xmlns:xlink="http://www.w3.org/1999/xlink" x="0px" y="0px" width="256px" height="256px"
	 viewBox="0 0 256 256" style="enable-background:new 0 0 256 256;" xml:space="preserve">
<metadata>
	<sfw  xmlns="&ns_sfw;">
		<slices></slices>
		<sliceSourceBounds  height="256" width="256" x="-0.5" y="0.5" bottomLeftOrigin="true"></sliceSourceBounds>
	</sfw>
</metadata>
<path d="M36.571,0C16.4,0,0,16.4,0,36.571v182.857C0,239.602,16.4,256,36.571,256h182.857C239.602,256,256,239.602,256,219.43
	V36.571C256,16.4,239.602,0,219.43,0H36.571z M41.419,57.815h44.873c24.778,0,44.872,20.544,44.872,45.877
	s-20.095,45.877-44.872,45.877H53.125v23.936c0,6.632-5.218,11.968-11.707,11.968c-6.486,0-11.704-5.336-11.704-11.968V137.6V69.781
	C29.715,63.15,34.933,57.815,41.419,57.815z M86.292,125.634c11.853,0,21.46-9.825,21.46-21.942c0-12.118-9.607-21.941-21.46-21.941
	H53.125v43.884H86.292z M148.555,57.473h69.566c6.425,0,11.594,5.284,11.594,11.854s-5.169,11.854-11.594,11.854h-57.973v27.66
	h42.513c6.427,0,11.594,5.286,11.594,11.854c0,6.569-5.167,11.855-11.594,11.855h-42.513v27.66h57.973
	c6.425,0,11.594,5.283,11.594,11.854s-5.169,11.854-11.594,11.854h-69.566c-6.426,0-11.594-5.283-11.594-11.854v-51.369V69.326
	C136.961,62.757,142.129,57.473,148.555,57.473z"/>
</svg>
