<?xml version="1.0" encoding="utf-8"?>
<!-- Generator: Adobe Illustrator 16.0.0, SVG Export Plug-In . SVG Version: 6.00 Build 0)  -->
<!DOCTYPE svg PUBLIC "-//W3C//DTD SVG 1.1//EN" "http://www.w3.org/Graphics/SVG/1.1/DTD/svg11.dtd" [
	<!ENTITY ns_extend "http://ns.adobe.com/Extensibility/1.0/">
	<!ENTITY ns_ai "http://ns.adobe.com/AdobeIllustrator/10.0/">
	<!ENTITY ns_graphs "http://ns.adobe.com/Graphs/1.0/">
	<!ENTITY ns_vars "http://ns.adobe.com/Variables/1.0/">
	<!ENTITY ns_imrep "http://ns.adobe.com/ImageReplacement/1.0/">
	<!ENTITY ns_sfw "http://ns.adobe.com/SaveForWeb/1.0/">
	<!ENTITY ns_custom "http://ns.adobe.com/GenericCustomNamespace/1.0/">
	<!ENTITY ns_adobe_xpath "http://ns.adobe.com/XPath/1.0/">
]>
<svg version="1.1" id="图层_1" xmlns:x="&ns_extend;" xmlns:i="&ns_ai;" xmlns:graph="&ns_graphs;"
	 xmlns="http://www.w3.org/2000/svg" xmlns:xlink="http://www.w3.org/1999/xlink" x="0px" y="0px" width="256px" height="256px"
	 viewBox="0 0 256 256" enable-background="new 0 0 256 256" xml:space="preserve">
<metadata>
	<sfw  xmlns="&ns_sfw;">
		<slices></slices>
		<sliceSourceBounds  height="256" width="256" y="3.598" x="-0.5" bottomLeftOrigin="true"></sliceSourceBounds>
	</sfw>
</metadata>
<path d="M85.626,203.033c0,1.059-1.188,1.905-2.684,1.905c-1.703,0.159-2.891-0.688-2.891-1.905c0-1.059,1.188-1.905,2.684-1.905
	C84.284,200.969,85.626,201.815,85.626,203.033z M69.574,200.65c-0.361,1.06,0.671,2.276,2.219,2.595c1.342,0.529,2.891,0,3.2-1.059
	s-0.671-2.277-2.219-2.754C71.433,199.063,69.936,199.592,69.574,200.65L69.574,200.65z M92.387,199.75
	c-1.497,0.371-2.529,1.378-2.374,2.595c0.155,1.059,1.497,1.747,3.045,1.376c1.497-0.37,2.529-1.376,2.375-2.435
	C95.277,200.279,93.884,199.592,92.387,199.75z M126.348-3.098C54.761-3.098,0,52.643,0,126.064
	c0,58.706,36.026,108.941,87.484,126.621c6.606,1.219,8.929-2.964,8.929-6.404c0-3.282-0.154-21.387-0.154-32.503
	c0,0-36.129,7.94-43.716-15.774c0,0-5.884-15.404-14.349-19.374c0,0-11.819-8.312,0.826-8.152c0,0,12.852,1.059,19.923,13.657
	c11.303,20.434,30.245,14.557,37.625,11.063c1.188-8.47,4.542-14.346,8.258-17.839c-28.852-3.283-57.961-7.57-57.961-58.494
	c0-14.557,3.923-21.863,12.181-31.179c-1.342-3.44-5.729-17.627,1.342-35.943C71.174,48.302,96,66.035,96,66.035
	c10.323-2.964,21.419-4.5,32.413-4.5c10.994,0,22.09,1.536,32.413,4.5c0,0,24.826-17.786,35.613-14.292
	c7.071,18.369,2.685,32.503,1.342,35.943c8.258,9.37,13.316,16.675,13.316,31.179c0,51.083-30.4,55.158-59.252,58.494
	c4.749,4.182,8.774,12.122,8.774,24.563c0,17.839-0.154,39.912-0.154,44.254c0,3.44,2.374,7.623,8.929,6.404
	C221.006,235.006,256,184.771,256,126.064C256,52.643,197.936-3.098,126.348-3.098z M50.168,179.477
	c-0.671,0.529-0.516,1.746,0.361,2.752c0.826,0.847,2.013,1.219,2.684,0.529c0.671-0.529,0.516-1.746-0.361-2.752
	C52.026,179.159,50.839,178.788,50.168,179.477z M44.594,175.189c-0.361,0.688,0.155,1.534,1.187,2.063
	c0.826,0.529,1.858,0.371,2.219-0.37c0.361-0.688-0.155-1.535-1.187-2.064C45.781,174.501,44.955,174.66,44.594,175.189z
	 M61.316,194.034c-0.826,0.688-0.516,2.275,0.671,3.281c1.188,1.218,2.684,1.376,3.355,0.529c0.671-0.688,0.361-2.275-0.671-3.281
	C63.535,193.346,61.987,193.188,61.316,194.034z M55.433,186.252c-0.826,0.529-0.826,1.906,0,3.123
	c0.826,1.218,2.219,1.747,2.89,1.218c0.825-0.688,0.825-2.064,0-3.282C57.6,186.094,56.258,185.564,55.433,186.252z"/>
</svg>
