<?xml version="1.0" encoding="utf-8"?>
<!-- Generator: Adobe Illustrator 16.0.0, SVG Export Plug-In . SVG Version: 6.00 Build 0)  -->
<!DOCTYPE svg PUBLIC "-//W3C//DTD SVG 1.1//EN" "http://www.w3.org/Graphics/SVG/1.1/DTD/svg11.dtd">
<svg version="1.1" id="图层_1" xmlns="http://www.w3.org/2000/svg" xmlns:xlink="http://www.w3.org/1999/xlink" x="0px" y="0px"
	 width="256px" height="256px" viewBox="0 0 256 256" enable-background="new 0 0 256 256" xml:space="preserve">
<path d="M14.222,143.613c0-40.141,21.83-77.245,57.256-97.326c35.534-20.076,78.987-20.076,114.52,0
	c35.434,20.081,57.256,57.178,57.256,97.326C243.262,205.691,191.992,256,128.742,256C65.491,256,14.222,205.684,14.222,143.613z
	 M73.057,4.205c4.46,4.878,4.121,12.448-0.757,16.908c-0.147,0.135-0.298,0.266-0.452,0.393L21.063,64.413
	C15.737,68.87,7.85,68.359,3.143,63.253c-4.463-4.88-4.125-12.455,0.755-16.917c0.144-0.131,0.29-0.259,0.439-0.383L55.13,3.046
	c2.566-2.153,5.866-3.231,9.208-3.008C67.702,0.251,70.838,1.759,73.057,4.205z M126.978,79.701
	c-7.011,0-12.693,5.489-12.693,12.259v49.036c0,4.104,2.119,7.93,5.646,10.205l38.092,24.518c5.832,3.754,13.725,2.24,17.614-3.398
	c3.89-5.633,2.312-13.241-3.521-16.996l-32.439-20.884V91.96C139.678,85.19,133.989,79.701,126.978,79.701z M182.777,4.284
	c4.671-5.214,12.652-5.742,17.969-1.188l50.893,43.71c5.29,4.537,5.83,12.43,1.209,17.621c-4.63,5.191-12.672,5.725-17.963,1.181
	l-50.898-43.696c-5.191-4.402-5.83-12.178-1.429-17.369c0.071-0.085,0.146-0.169,0.22-0.252V4.284z"/>
</svg>
