<?xml version="1.0" encoding="utf-8"?>
<!-- Generator: Adobe Illustrator 16.0.0, SVG Export Plug-In . SVG Version: 6.00 Build 0)  -->
<!DOCTYPE svg PUBLIC "-//W3C//DTD SVG 1.1//EN" "http://www.w3.org/Graphics/SVG/1.1/DTD/svg11.dtd" [
	<!ENTITY ns_extend "http://ns.adobe.com/Extensibility/1.0/">
	<!ENTITY ns_ai "http://ns.adobe.com/AdobeIllustrator/10.0/">
	<!ENTITY ns_graphs "http://ns.adobe.com/Graphs/1.0/">
	<!ENTITY ns_vars "http://ns.adobe.com/Variables/1.0/">
	<!ENTITY ns_imrep "http://ns.adobe.com/ImageReplacement/1.0/">
	<!ENTITY ns_sfw "http://ns.adobe.com/SaveForWeb/1.0/">
	<!ENTITY ns_custom "http://ns.adobe.com/GenericCustomNamespace/1.0/">
	<!ENTITY ns_adobe_xpath "http://ns.adobe.com/XPath/1.0/">
]>
<svg version="1.1" id="图层_1" xmlns:x="&ns_extend;" xmlns:i="&ns_ai;" xmlns:graph="&ns_graphs;"
	 xmlns="http://www.w3.org/2000/svg" xmlns:xlink="http://www.w3.org/1999/xlink" x="0px" y="0px" width="256px" height="256px"
	 viewBox="0 0 256 256" style="enable-background:new 0 0 256 256;" xml:space="preserve">
<metadata>
	<sfw  xmlns="&ns_sfw;">
		<slices></slices>
		<sliceSourceBounds  height="256" width="256" x="-0.5" y="0.5" bottomLeftOrigin="true"></sliceSourceBounds>
	</sfw>
</metadata>
<path d="M36.571,0C16.4,0,0,16.4,0,36.571v182.857C0,239.602,16.4,256,36.571,256h182.857C239.602,256,256,239.602,256,219.43
	V36.571C256,16.4,239.602,0,219.43,0H36.571z M147.585,68.979l31.872,58.533l31.877-58.533c2.3-4.199,6.371-5.999,10.106-4.398
	c3.734,1.599,6.264,6.198,6.264,11.396v104.021c0,6.648-4.038,11.998-9.055,11.998c-5.016,0-9.052-5.35-9.052-11.998V113.12
	l-22.821,41.887c-1.697,3.102-4.415,4.946-7.356,4.946c-2.944,0-5.62-1.848-7.354-4.946L149.28,113.12v66.879
	c0,6.648-4.038,11.998-9.054,11.998c-5.013,0-9.051-5.35-9.051-11.998V76.028c0-5.199,2.524-9.796,6.259-11.398
	c3.735-1.6,7.808,0.15,10.112,4.398L147.585,68.979z M45.765,128.047c0,22.098,13.499,39.998,30.165,39.998
	c5.053,0,9.766-1.65,13.952-4.549l-11.312-15c-3.545-4.699-3.545-12.299,0-16.948c3.543-4.65,9.274-4.7,12.781,0l11.312,14.999
	c2.186-5.551,3.432-11.85,3.432-18.5c0-22.099-13.5-39.998-30.165-39.998C59.264,88.048,45.765,105.947,45.765,128.047z
	 M124.195,128.047c0,13.349-3.092,25.698-8.334,35.949l5.694,7.549c3.543,4.701,3.543,12.301,0,16.95
	c-3.545,4.648-9.276,4.699-12.782,0l-5.694-7.551c-7.729,7-17.081,11.051-27.111,11.051c-26.659,0-48.264-28.648-48.264-63.998
	C27.704,92.649,49.31,64,75.968,64c26.66,0,48.264,28.649,48.264,63.997L124.195,128.047z"/>
</svg>
