<?xml version="1.0" encoding="utf-8"?>
<!-- Generator: Adobe Illustrator 16.0.0, SVG Export Plug-In . SVG Version: 6.00 Build 0)  -->
<!DOCTYPE svg PUBLIC "-//W3C//DTD SVG 1.1//EN" "http://www.w3.org/Graphics/SVG/1.1/DTD/svg11.dtd" [
	<!ENTITY ns_extend "http://ns.adobe.com/Extensibility/1.0/">
	<!ENTITY ns_ai "http://ns.adobe.com/AdobeIllustrator/10.0/">
	<!ENTITY ns_graphs "http://ns.adobe.com/Graphs/1.0/">
	<!ENTITY ns_vars "http://ns.adobe.com/Variables/1.0/">
	<!ENTITY ns_imrep "http://ns.adobe.com/ImageReplacement/1.0/">
	<!ENTITY ns_sfw "http://ns.adobe.com/SaveForWeb/1.0/">
	<!ENTITY ns_custom "http://ns.adobe.com/GenericCustomNamespace/1.0/">
	<!ENTITY ns_adobe_xpath "http://ns.adobe.com/XPath/1.0/">
]>
<svg version="1.1" id="图层_1" xmlns:x="&ns_extend;" xmlns:i="&ns_ai;" xmlns:graph="&ns_graphs;"
	 xmlns="http://www.w3.org/2000/svg" xmlns:xlink="http://www.w3.org/1999/xlink" x="0px" y="0px" width="256px" height="256px"
	 viewBox="0 0 256 256" style="enable-background:new 0 0 256 256;" xml:space="preserve">
<metadata>
	<sfw  xmlns="&ns_sfw;">
		<slices></slices>
		<sliceSourceBounds  height="256" width="256" x="-0.5" y="0.5" bottomLeftOrigin="true"></sliceSourceBounds>
	</sfw>
</metadata>
<path d="M36.571,0C16.4,0,0,16.4,0,36.571v182.857C0,239.602,16.4,256,36.571,256h182.857C239.602,256,256,239.602,256,219.43
	V36.571C256,16.4,239.602,0,219.43,0H36.571z M59.547,99.75c-13.714,15.6-13.714,40.95,0,56.549c13.714,15.6,36,15.6,49.714,0
	c4.132-4.699,10.813-4.699,14.902,0c4.086,4.7,4.132,12.3,0,16.95c-21.979,25-57.583,25-79.562,0c-21.979-24.999-21.979-65.5,0-90.5
	c21.978-25,57.583-25,79.562,0c4.132,4.7,4.132,12.299,0,16.95c-4.133,4.649-10.814,4.7-14.902,0c-13.714-15.601-36-15.601-49.714,0
	V99.75z M160.401,99.75c-13.713,15.6-13.713,40.95,0,56.548c13.715,15.6,36,15.6,49.715,0c4.133-4.698,10.813-4.698,14.902,0
	c4.086,4.7,4.132,12.301,0,16.95c-21.979,25.001-57.584,25.001-79.562,0c-21.979-24.998-21.979-65.499,0-90.499
	c21.978-25,57.582-25,79.562,0c4.132,4.7,4.132,12.299,0,16.95c-4.134,4.649-10.814,4.7-14.902,0c-13.715-15.601-36-15.601-49.715,0
	V99.75z"/>
</svg>
