<?xml version="1.0" encoding="utf-8"?>
<!-- Generator: Adobe Illustrator 16.0.0, SVG Export Plug-In . SVG Version: 6.00 Build 0)  -->
<!DOCTYPE svg PUBLIC "-//W3C//DTD SVG 1.1//EN" "http://www.w3.org/Graphics/SVG/1.1/DTD/svg11.dtd" [
	<!ENTITY ns_extend "http://ns.adobe.com/Extensibility/1.0/">
	<!ENTITY ns_ai "http://ns.adobe.com/AdobeIllustrator/10.0/">
	<!ENTITY ns_graphs "http://ns.adobe.com/Graphs/1.0/">
	<!ENTITY ns_vars "http://ns.adobe.com/Variables/1.0/">
	<!ENTITY ns_imrep "http://ns.adobe.com/ImageReplacement/1.0/">
	<!ENTITY ns_sfw "http://ns.adobe.com/SaveForWeb/1.0/">
	<!ENTITY ns_custom "http://ns.adobe.com/GenericCustomNamespace/1.0/">
	<!ENTITY ns_adobe_xpath "http://ns.adobe.com/XPath/1.0/">
]>
<svg version="1.1" id="图层_1" xmlns:x="&ns_extend;" xmlns:i="&ns_ai;" xmlns:graph="&ns_graphs;"
	 xmlns="http://www.w3.org/2000/svg" xmlns:xlink="http://www.w3.org/1999/xlink" x="0px" y="0px" width="256px" height="256px"
	 viewBox="0 0 256 256" style="enable-background:new 0 0 256 256;" xml:space="preserve">
<metadata>
	<sfw  xmlns="&ns_sfw;">
		<slices></slices>
		<sliceSourceBounds  height="256" width="256" x="-0.5" y="0.5" bottomLeftOrigin="true"></sliceSourceBounds>
	</sfw>
</metadata>
<path d="M36.571,0C16.4,0,0,16.4,0,36.571v182.857C0,239.601,16.4,256,36.571,256h182.857C239.601,256,256,239.601,256,219.429
	V36.571C256,16.4,239.601,0,219.429,0H36.571z M45.409,98.1c-0.55,3.2-0.1,4.85,0.3,5.8c0.5,1,1.45,2.3,3.7,3.85
	c5.05,3.4,12.85,5.75,23.4,8.7l1,0.3l0,0c9.2,2.6,20.7,5.85,29.3,11.6c4.75,3.2,9.25,7.55,12.05,13.6
	c2.851,6.149,3.5,12.95,2.2,20.149c-2.35,13.15-11.55,21.65-22.5,26c-10.65,4.2-23.5,4.801-36.3,2.851h-0.05l0,0
	c-8.15-1.3-21.85-5.351-28.65-7.55c-6.3-2-9.8-8.801-7.75-15.101s8.8-9.8,15.1-7.75c6.95,2.25,18.9,5.7,25,6.7
	c10.1,1.5,18.4,0.7,23.85-1.45c5.149-2.05,7.1-4.8,7.7-7.899c0.55-3.2,0.1-4.851-0.301-5.801c-0.5-1-1.449-2.3-3.699-3.85
	c-5.051-3.4-12.851-5.75-23.4-8.7l-1-0.3c-9.2-2.6-20.7-5.85-29.3-11.6c-4.75-3.2-9.25-7.55-12.05-13.6
	c-2.85-6.15-3.5-12.95-2.2-20.15c2.35-13.15,11.55-21.65,22.5-26c10.65-4.2,23.5-4.8,36.3-2.85c4.05,0.6,12.2,2.4,16,3.35
	c6.4,1.65,10.3,8.2,8.65,14.6c-1.65,6.4-8.2,10.3-14.601,8.65c-3.35-0.85-10.649-2.45-13.649-2.85c-10.15-1.55-18.4-0.7-23.9,1.45
	c-5.15,2.05-7.1,4.8-7.7,7.9V98.1z M134.312,64h36c35.35,0,64,28.65,64,64c0,35.35-28.65,64-64,64h-36c-6.649,0-12-5.35-12-12V76
	C122.312,69.35,127.662,64,134.312,64z M146.312,168h24c22.1,0,40-17.9,40-40c0-22.1-17.9-40-40-40h-24V168z"/>
</svg>
