<?xml version="1.0" encoding="utf-8"?>
<!-- Generator: Adobe Illustrator 16.0.0, SVG Export Plug-In . SVG Version: 6.00 Build 0)  -->
<!DOCTYPE svg PUBLIC "-//W3C//DTD SVG 1.1//EN" "http://www.w3.org/Graphics/SVG/1.1/DTD/svg11.dtd" [
	<!ENTITY ns_extend "http://ns.adobe.com/Extensibility/1.0/">
	<!ENTITY ns_ai "http://ns.adobe.com/AdobeIllustrator/10.0/">
	<!ENTITY ns_graphs "http://ns.adobe.com/Graphs/1.0/">
	<!ENTITY ns_vars "http://ns.adobe.com/Variables/1.0/">
	<!ENTITY ns_imrep "http://ns.adobe.com/ImageReplacement/1.0/">
	<!ENTITY ns_sfw "http://ns.adobe.com/SaveForWeb/1.0/">
	<!ENTITY ns_custom "http://ns.adobe.com/GenericCustomNamespace/1.0/">
	<!ENTITY ns_adobe_xpath "http://ns.adobe.com/XPath/1.0/">
]>
<svg version="1.1" id="图层_1" xmlns:x="&ns_extend;" xmlns:i="&ns_ai;" xmlns:graph="&ns_graphs;"
	 xmlns="http://www.w3.org/2000/svg" xmlns:xlink="http://www.w3.org/1999/xlink" x="0px" y="0px" width="256px" height="256px"
	 viewBox="0 0 256 256" style="enable-background:new 0 0 256 256;" xml:space="preserve">
<metadata>
	<sfw  xmlns="&ns_sfw;">
		<slices></slices>
		<sliceSourceBounds  height="224" width="224" x="15.5" y="16.5" bottomLeftOrigin="true"></sliceSourceBounds>
	</sfw>
</metadata>
<path d="M48,16c-17.65,0-32,14.35-32,32v160c0,17.65,14.35,32,32,32h160c17.65,0,32-14.35,32-32V48c0-17.65-14.35-32-32-32H48z
	 M53.542,75.155l28.541,57.892l28.542-57.892c2.06-4.153,5.708-5.933,9.052-4.351c3.343,1.583,5.606,6.131,5.606,11.272v102.882
	c0,6.575-3.614,11.865-8.105,11.865c-4.493,0-8.107-5.29-8.107-11.865v-66.149l-20.435,41.429c-1.52,3.064-3.952,4.895-6.586,4.895
	c-2.636,0-5.034-1.828-6.587-4.895l-20.401-41.429v66.149c0,6.575-3.614,11.865-8.106,11.865s-8.106-5.29-8.106-11.865V82.125
	c0-5.142,2.263-9.689,5.607-11.272c3.344-1.582,6.992,0.148,9.052,4.351L53.542,75.155z M147.109,73.746l28.54,57.893l28.542-57.893
	c2.06-4.153,5.707-5.933,9.053-4.351c3.343,1.582,5.605,6.131,5.605,11.272v102.882c0,6.576-3.614,11.865-8.106,11.865
	s-8.106-5.289-8.106-11.865V117.4l-20.435,41.43c-1.521,3.064-3.953,4.895-6.586,4.895c-2.635,0-5.033-1.83-6.586-4.895
	l-20.401-41.43v66.149c0,6.576-3.614,11.865-8.107,11.865c-4.491,0-8.105-5.289-8.105-11.865V80.716
	c0-5.142,2.264-9.69,5.605-11.272c3.346-1.582,6.993,0.148,9.053,4.351L147.109,73.746z"/>
</svg>
