<?xml version="1.0" encoding="utf-8"?>
<!-- Generator: Adobe Illustrator 16.0.0, SVG Export Plug-In . SVG Version: 6.00 Build 0)  -->
<!DOCTYPE svg PUBLIC "-//W3C//DTD SVG 1.1//EN" "http://www.w3.org/Graphics/SVG/1.1/DTD/svg11.dtd" [
	<!ENTITY ns_extend "http://ns.adobe.com/Extensibility/1.0/">
	<!ENTITY ns_ai "http://ns.adobe.com/AdobeIllustrator/10.0/">
	<!ENTITY ns_graphs "http://ns.adobe.com/Graphs/1.0/">
	<!ENTITY ns_vars "http://ns.adobe.com/Variables/1.0/">
	<!ENTITY ns_imrep "http://ns.adobe.com/ImageReplacement/1.0/">
	<!ENTITY ns_sfw "http://ns.adobe.com/SaveForWeb/1.0/">
	<!ENTITY ns_custom "http://ns.adobe.com/GenericCustomNamespace/1.0/">
	<!ENTITY ns_adobe_xpath "http://ns.adobe.com/XPath/1.0/">
]>
<svg version="1.1" id="图层_1" xmlns:x="&ns_extend;" xmlns:i="&ns_ai;" xmlns:graph="&ns_graphs;"
	 xmlns="http://www.w3.org/2000/svg" xmlns:xlink="http://www.w3.org/1999/xlink" x="0px" y="0px" width="256px" height="256px"
	 viewBox="0 0 256 256" style="enable-background:new 0 0 256 256;" xml:space="preserve">
<metadata>
	<sfw  xmlns="&ns_sfw;">
		<slices></slices>
		<sliceSourceBounds  height="256" width="256" x="-0.5" y="0.5" bottomLeftOrigin="true"></sliceSourceBounds>
	</sfw>
</metadata>
<path d="M36.571,0C16.4,0,0,16.4,0,36.571v182.857C0,239.602,16.4,256,36.571,256h182.857C239.602,256,256,239.602,256,219.43
	V36.571C256,16.4,239.602,0,219.43,0H36.571z M60.217,99.756c-13.611,15.596-13.611,40.94,0,56.537
	c13.611,15.596,35.73,15.596,49.342,0c4.101-4.699,10.732-4.699,14.79,0c4.056,4.698,4.101,12.296,0,16.945
	c-21.814,24.995-57.152,24.995-78.965,0c-21.814-24.993-21.814-65.484,0-90.478c21.813-24.994,57.151-24.994,78.965,0
	c4.101,4.698,4.101,12.296,0,16.946c-4.103,4.648-10.733,4.699-14.79,0c-13.612-15.597-35.73-15.597-49.342,0V99.756z
	 M155.256,98.107c-0.56,3.199-0.103,4.849,0.304,5.798c0.508,1,1.473,2.299,3.761,3.849c5.131,3.4,13.058,5.75,23.779,8.698
	l1.016,0.3l0,0c9.35,2.599,21.035,5.848,29.775,11.596c4.827,3.2,9.399,7.549,12.245,13.598c2.896,6.147,3.557,12.947,2.235,20.145
	c-2.387,13.146-11.736,21.645-22.863,25.994c-10.823,4.198-23.881,4.799-36.89,2.85h-0.05l0,0
	c-8.283-1.299-22.205-5.35-29.114-7.548c-6.403-1.999-9.959-8.8-7.878-15.098c2.085-6.298,8.943-9.797,15.346-7.747
	c7.062,2.249,19.206,5.698,25.405,6.698c10.264,1.498,18.698,0.699,24.236-1.45c5.232-2.049,7.215-4.799,7.826-7.897
	c0.558-3.198,0.1-4.85-0.306-5.8c-0.51-1-1.474-2.299-3.76-3.849c-5.134-3.399-13.059-5.748-23.78-8.696l-1.017-0.301
	c-9.349-2.6-21.035-5.849-29.774-11.597c-4.827-3.2-9.399-7.548-12.246-13.597c-2.896-6.149-3.556-12.947-2.234-20.146
	c2.388-13.146,11.736-21.645,22.864-25.994c10.82-4.198,23.88-4.798,36.888-2.849c4.115,0.6,12.399,2.399,16.261,3.35
	c6.504,1.649,10.465,8.198,8.789,14.597c-1.676,6.398-8.331,10.297-14.837,8.648c-3.403-0.851-10.822-2.449-13.87-2.849
	c-10.315-1.549-18.698-0.7-24.289,1.449c-5.233,2.05-7.215,4.799-7.823,7.899L155.256,98.107L155.256,98.107z"/>
</svg>
