<?xml version="1.0" encoding="utf-8"?>
<!-- Generator: Adobe Illustrator 16.0.0, SVG Export Plug-In . SVG Version: 6.00 Build 0)  -->
<!DOCTYPE svg PUBLIC "-//W3C//DTD SVG 1.1//EN" "http://www.w3.org/Graphics/SVG/1.1/DTD/svg11.dtd" [
	<!ENTITY ns_extend "http://ns.adobe.com/Extensibility/1.0/">
	<!ENTITY ns_ai "http://ns.adobe.com/AdobeIllustrator/10.0/">
	<!ENTITY ns_graphs "http://ns.adobe.com/Graphs/1.0/">
	<!ENTITY ns_vars "http://ns.adobe.com/Variables/1.0/">
	<!ENTITY ns_imrep "http://ns.adobe.com/ImageReplacement/1.0/">
	<!ENTITY ns_sfw "http://ns.adobe.com/SaveForWeb/1.0/">
	<!ENTITY ns_custom "http://ns.adobe.com/GenericCustomNamespace/1.0/">
	<!ENTITY ns_adobe_xpath "http://ns.adobe.com/XPath/1.0/">
]>
<svg version="1.1" id="图层_1" xmlns:x="&ns_extend;" xmlns:i="&ns_ai;" xmlns:graph="&ns_graphs;"
	 xmlns="http://www.w3.org/2000/svg" xmlns:xlink="http://www.w3.org/1999/xlink" x="0px" y="0px" width="256px" height="256px"
	 viewBox="0 0 256 256" style="enable-background:new 0 0 256 256;" xml:space="preserve">
<metadata>
	<sfw  xmlns="&ns_sfw;">
		<slices></slices>
		<sliceSourceBounds  height="224" width="224" x="15.5" y="16.5" bottomLeftOrigin="true"></sliceSourceBounds>
	</sfw>
</metadata>
<path d="M48,16c-17.65,0-32,14.35-32,32v160c0,17.65,14.35,32,32,32h160c17.65,0,32-14.35,32-32V48c0-17.65-14.35-32-32-32H48z
	 M48.738,64.844h39.247c21.672,0,39.247,20.479,39.247,45.73c0,25.251-17.575,45.729-39.247,45.729H58.977v23.859
	c0,6.61-4.564,11.928-10.239,11.928c-5.673,0-10.238-5.317-10.238-11.928v-35.79v-67.6C38.5,70.162,43.064,64.844,48.738,64.844z
	 M87.985,132.445c10.367,0,18.77-9.793,18.77-21.872c0-12.079-8.403-21.872-18.77-21.872H58.977v43.743H87.985z M140.006,65.598
	h39.246c21.672,0,39.248,20.479,39.248,45.73c0,25.252-17.576,45.729-39.248,45.729h-29.008v23.858
	c0,6.611-4.564,11.928-10.238,11.928c-5.675,0-10.238-5.316-10.238-11.928v-35.79V77.527
	C129.768,70.917,134.331,65.598,140.006,65.598z M179.254,133.2c10.366,0,18.77-9.794,18.77-21.871
	c0-12.079-8.403-21.872-18.77-21.872h-29.01V133.2H179.254z"/>
</svg>
