<?xml version="1.0" encoding="iso-8859-1"?>
<!-- Generator: Adobe Illustrator 16.0.0, SVG Export Plug-In . SVG Version: 6.00 Build 0)  -->
<!DOCTYPE svg PUBLIC "-//W3C//DTD SVG 1.1//EN" "http://www.w3.org/Graphics/SVG/1.1/DTD/svg11.dtd">
<svg version="1.1" id="&#x56FE;&#x5C42;_1" xmlns="http://www.w3.org/2000/svg" xmlns:xlink="http://www.w3.org/1999/xlink" x="0px"
	 y="0px" width="256px" height="256px" viewBox="0 0 256 256" style="enable-background:new 0 0 256 256;" xml:space="preserve">
<path d="M244.691,226.73h-8.372V97c0-20.315-15.375-37.504-33.513-37.504h-50.313v157.887c0,4.688-4.186,9.375-8.371,9.375
	s-8.371-4.688-8.371-9.375V40.744c0-20.315-15.376-37.504-33.515-37.504H53.319c-18.166,0-33.514,17.189-33.514,37.504v186.014
	h-8.372c-4.186,0-8.372,4.688-8.372,9.377c0,4.687,4.186,9.376,8.372,9.376h233.257c4.186,0,8.371-4.689,8.371-9.376
	C253.063,231.446,248.877,226.729,244.691,226.73L244.691,226.73z M95.232,189.198H61.691c-4.186,0-8.372-4.688-8.372-9.376
	c0-4.688,4.186-9.376,8.372-9.376h33.514c4.186,0,8.371,4.688,8.371,9.376C103.604,186.073,99.418,189.198,95.232,189.198z
	 M95.232,134.505H61.691c-5.581,0-8.372-4.688-8.372-9.376s4.186-9.376,8.372-9.376h33.514c4.186,0,8.371,4.688,8.371,9.376
	C103.604,129.816,99.418,134.505,95.232,134.505z M95.232,78.22H61.691c-5.581,0-8.372-4.688-8.372-9.376
	c0-4.688,4.186-9.376,8.372-9.376h33.514c4.186,0,8.371,4.688,8.371,9.376C103.604,73.532,99.418,78.22,95.232,78.22z
	 M211.149,189.198h-33.515c-4.186,0-8.371-4.688-8.371-9.376c0-4.688,4.186-9.376,8.371-9.376h33.515
	c4.186,0,8.371,4.688,8.371,9.376C219.549,186.073,215.363,189.198,211.149,189.198z M211.149,134.505h-33.515
	c-4.186,0-8.371-4.688-8.371-9.376s4.186-9.376,8.371-9.376h33.515c4.186,0,8.371,4.688,8.371,9.376
	C219.549,129.816,215.363,134.505,211.149,134.505z"/>
</svg>
