<?xml version="1.0" encoding="utf-8"?>
<!-- Generator: Adobe Illustrator 16.0.0, SVG Export Plug-In . SVG Version: 6.00 Build 0)  -->
<!DOCTYPE svg PUBLIC "-//W3C//DTD SVG 1.1//EN" "http://www.w3.org/Graphics/SVG/1.1/DTD/svg11.dtd">
<svg version="1.1" id="图层_1" xmlns="http://www.w3.org/2000/svg" xmlns:xlink="http://www.w3.org/1999/xlink" x="0px" y="0px"
	 width="200px" height="200px" viewBox="0 0 200 200" style="enable-background:new 0 0 200 200;" xml:space="preserve">
<path d="M160.814,172.143c5.686,0,10.143,6.286,10.257,13.929c0,7.644-4.571,13.929-10.143,13.929H39.071
	c-5.571,0-10.143-6.285-10.143-13.929c0-7.628,4.571-13.914,10.143-13.914h121.743V172.143z M199.843,139.242
	c0,7.629-6.442,13.915-14.271,13.915H14.286C6.443,153.157,0,146.871,0,139.242V13.929C0,6.286,6.443,0,14.286,0h171.429
	C193.557,0,200,6.286,200,13.929v125.313h-0.143H199.843z M56.114,29.7c-4.119-0.016-7.47,3.31-7.486,7.428l0,0V115.1
	c0,4.101,3.357,7.429,7.486,7.429H63.6c4.128,0,7.471-3.328,7.471-7.429V37.143c-0.016-4.113-3.358-7.437-7.471-7.429h-7.486V29.7z
	 M101,29.7c-4.119-0.016-7.47,3.31-7.486,7.428l0,0V115.1c0,4.101,3.357,7.429,7.486,7.429h7.486c4.143,0,7.484-3.328,7.484-7.429
	V37.143c-0.016-4.119-3.367-7.444-7.484-7.429l0,0H101V29.7z M145.886,55.7c-4.112-0.008-7.456,3.315-7.472,7.428V115.1
	c0,4.101,3.344,7.429,7.472,7.429h7.485c4.143,0,7.486-3.328,7.486-7.429V63.143c-0.016-4.119-3.367-7.444-7.486-7.429l0,0h-7.485
	V55.7z"/>
</svg>
