<?xml version="1.0" encoding="utf-8"?>
<!-- Generator: Adobe Illustrator 16.0.0, SVG Export Plug-In . SVG Version: 6.00 Build 0)  -->
<!DOCTYPE svg PUBLIC "-//W3C//DTD SVG 1.1//EN" "http://www.w3.org/Graphics/SVG/1.1/DTD/svg11.dtd" [
	<!ENTITY st0 "fill:#2B3B94;">
]>
<svg version="1.1" id="图层_1" xmlns="http://www.w3.org/2000/svg" xmlns:xlink="http://www.w3.org/1999/xlink" x="0px" y="0px"
	 width="200px" height="200px" viewBox="0 0 200 200" style="enable-background:new 0 0 200 200;" xml:space="preserve">
<path style="&st0;" d="M88.824,25.523h31.443v22.552H88.824V25.523z"/>
<path style="&st0;" d="M191.646,6.884C186.281,2.473,179.011-0.002,171.43,0H142.86v35.286H57.137V0H28.569
	C12.787,0,0,10.524,0,23.521v152.951c0,6.236,3.009,12.215,8.354,16.625c5.362,4.417,12.633,6.896,20.216,6.903h142.86
	c7.588,0,14.846-2.49,20.217-6.903c5.349-4.411,8.354-10.392,8.354-16.625V23.521C199.996,17.283,196.991,11.302,191.646,6.884
	L191.646,6.884z M168.182,157.215H31.802v-14.985h136.38V157.215L168.182,157.215z M168.182,118.266H31.802v-14.984h136.38V118.266
	L168.182,118.266z M168.182,79.323H31.802V64.333h136.38V79.323L168.182,79.323z"/>
</svg>
