<?xml version="1.0" encoding="iso-8859-1"?>
<!-- Generator: Adobe Illustrator 16.0.0, SVG Export Plug-In . SVG Version: 6.00 Build 0)  -->
<!DOCTYPE svg PUBLIC "-//W3C//DTD SVG 1.1//EN" "http://www.w3.org/Graphics/SVG/1.1/DTD/svg11.dtd">
<svg version="1.1" id="&#x56FE;&#x5C42;_1" xmlns="http://www.w3.org/2000/svg" xmlns:xlink="http://www.w3.org/1999/xlink" x="0px"
	 y="0px" width="256px" height="256px" viewBox="0 0 256 256" style="enable-background:new 0 0 256 256;" xml:space="preserve">
<path d="M190.5,253h-125C31.048,253,3,224.952,3,190.5v-125C3,31.048,31.048,3,65.5,3h125C224.952,3,253,31.048,253,65.5v125
	C253,224.952,224.952,253,190.5,253z M65.5,25.735c-21.924,0-39.765,17.841-39.765,39.765v125c0,21.924,17.841,39.765,39.765,39.765
	h125c21.924,0,39.765-17.841,39.765-39.765v-125c0-21.924-17.841-39.765-39.765-39.765H65.5z"/>
<path d="M192.223,47.985H63.778C58.168,47.985,53,52.488,53,58.394v139.185c0,5.868,4.687,10.409,10.778,10.409h128.445
	c6.089,0,10.777-4.541,10.777-10.409V58.394C203.037,52.524,197.87,47.985,192.223,47.985z M87.695,128.004
	c-4.208,0-7.973-3.617-7.973-7.678s3.765-7.676,7.973-7.676c4.207,0,7.972,3.616,7.972,7.676c0,2.067-0.85,4.061-2.362,5.5
	C91.792,127.267,89.762,128.078,87.695,128.004z M87.695,91.833c-4.208,0-7.973-3.617-7.973-7.677c0-4.06,3.765-7.677,7.973-7.677
	c4.207,0,7.972,3.617,7.972,7.677c-0.037,2.067-0.886,4.061-2.362,5.5C91.792,91.132,89.762,91.907,87.695,91.833z M168.305,128.004
	h-53.888c-4.245,0-7.972-3.617-7.972-7.678s3.765-7.676,7.972-7.676h53.444c4.208,0,7.974,3.616,7.974,7.676
	C175.835,124.498,172.514,127.931,168.305,128.004z M168.305,91.833h-53.888c-4.245,0-7.972-3.617-7.972-7.677
	c0-4.06,3.765-7.677,7.972-7.677h53.444c4.208,0,7.974,3.617,7.974,7.677C175.835,88.327,172.514,91.76,168.305,91.833z"/>
</svg>
