<?xml version="1.0" encoding="utf-8"?>
<!-- Generator: Adobe Illustrator 16.0.0, SVG Export Plug-In . SVG Version: 6.00 Build 0)  -->
<!DOCTYPE svg PUBLIC "-//W3C//DTD SVG 1.1//EN" "http://www.w3.org/Graphics/SVG/1.1/DTD/svg11.dtd">
<svg version="1.1" id="图层_1" xmlns="http://www.w3.org/2000/svg" xmlns:xlink="http://www.w3.org/1999/xlink" x="0px" y="0px"
	 width="200px" height="200px" viewBox="0 0 200 200" style="enable-background:new 0 0 200 200;" xml:space="preserve">
<path d="M12.5,152.963v7.949c0,11.95,4.938,26.588,16.938,26.588h141.2c11.925,0,16.862-14.638,16.862-26.588v-7.949
	c0,11.925-7.513,15.087-19.45,15.087H31.95C19.938,168.05,12.5,164.9,12.5,152.963z M12.5,29.362V129.1
	c0,11.926,7.438,19.513,19.45,19.513h136.112c11.938,0,19.45-7.587,19.45-19.513V29.362C187.5,17.425,182.563,12.5,170.638,12.5
	h-14.95v18.05c4.775,2.8,7.963,7.875,7.963,13.763c0,8.763-7.163,15.925-15.913,15.925s-15.912-7.15-15.912-15.925
	c0-5.888,3.175-10.962,7.95-13.763V12.5h-79.55v18.05c4.762,2.8,7.95,7.875,7.95,13.763c0,8.763-7.162,15.925-15.912,15.925
	S36.35,53.087,36.35,44.313c0-5.888,3.175-10.962,7.95-13.763V12.5H29.425C17.438,12.5,12.5,17.425,12.5,29.362z"/>
</svg>
