<?xml version="1.0" encoding="utf-8"?>
<!-- Generator: Adobe Illustrator 16.0.0, SVG Export Plug-In . SVG Version: 6.00 Build 0)  -->
<!DOCTYPE svg PUBLIC "-//W3C//DTD SVG 1.1//EN" "http://www.w3.org/Graphics/SVG/1.1/DTD/svg11.dtd">
<svg version="1.1" id="图层_1" xmlns="http://www.w3.org/2000/svg" xmlns:xlink="http://www.w3.org/1999/xlink" x="0px" y="0px"
	 width="200px" height="200px" viewBox="0 0 200 200" style="enable-background:new 0 0 200 200;" xml:space="preserve">
<path d="M145.396,9.771H59.024c-13.161,0-23.826,10.674-23.826,23.826v134.014c0,13.152,10.665,23.824,23.826,23.824h86.373
	c13.17,0,23.834-10.674,23.834-23.824V33.597C169.23,20.446,158.566,9.771,145.396,9.771z M81.568,19.97h40.129v9.307H81.568V19.97z
	 M101.637,182.758c-6.444,0-11.661-5.215-11.661-11.66c0-6.43,5.216-11.645,11.661-11.645c6.436,0,11.66,5.215,11.66,11.645
	C113.297,177.543,108.07,182.758,101.637,182.758z M86.959,134.105L53.791,100.95l11.69-11.691L86.96,110.65l54.636-54.646
	l11.69,11.777L86.959,134.105L86.959,134.105z"/>
</svg>
