<?xml version="1.0" encoding="utf-8"?>
<!-- Generator: Adobe Illustrator 16.0.0, SVG Export Plug-In . SVG Version: 6.00 Build 0)  -->
<!DOCTYPE svg PUBLIC "-//W3C//DTD SVG 1.1//EN" "http://www.w3.org/Graphics/SVG/1.1/DTD/svg11.dtd">
<svg version="1.1" id="图层_1" xmlns="http://www.w3.org/2000/svg" xmlns:xlink="http://www.w3.org/1999/xlink" x="0px" y="0px"
	 width="209.375px" height="200px" viewBox="0 0 209.375 200" style="enable-background:new 0 0 209.375 200;" xml:space="preserve"
	>
<path d="M5.237,43.511h198.544c2.891,0,5.234-2.343,5.234-5.234l0,0V23.476c0.107-2.889-2.148-5.317-5.037-5.424
	c-0.186-0.007-0.372-0.004-0.558,0.009h-39.89V5.246c0-2.891-2.344-5.234-5.234-5.234l0,0h-13.898c-2.891,0-5.234,2.344-5.234,5.234
	v12.815H61.732V5.607c0-3.09-2.505-5.595-5.595-5.595H42.059c-3.084-0.199-5.746,2.139-5.945,5.223
	c-0.008,0.124-0.012,0.249-0.012,0.373v12.454H5.237C2.347,18.06,0.001,20.401,0,23.292c0,0.061,0.001,0.123,0.003,0.184v14.801
	C0.003,41.167,2.347,43.511,5.237,43.511z M51.805,58.131H4.154c-2.292,0-4.151,1.859-4.151,4.151v47.651
	c-0.002,2.192,1.774,3.973,3.967,3.975c0.062,0,0.123-0.002,0.185-0.004h47.651c2.191,0.1,4.047-1.596,4.147-3.787
	c0.003-0.061,0.004-0.123,0.004-0.184V62.282C55.957,59.99,54.098,58.131,51.805,58.131z M51.805,128.523H4.154
	c-2.292,0-4.151,1.859-4.151,4.152v47.83c0,2.293,1.859,4.152,4.151,4.152h47.651c2.292,0,4.151-1.859,4.151-4.152v-47.83
	C55.957,130.383,54.098,128.523,51.805,128.523z M105.953,128.523H80.684c-2.292,0-4.151,1.859-4.151,4.152v47.83
	c-0.261,0.762-0.261,1.587,0,2.348c0.311-8.403,2.209-16.671,5.596-24.367c3.56-8.477,8.706-16.196,15.161-22.742
	c2.868-2.578,5.881-4.988,9.025-7.221H105.953z M204.143,113.904c2.191,0.1,4.048-1.596,4.147-3.787
	c0.003-0.061,0.004-0.123,0.004-0.184V62.282c0-2.292-1.858-4.151-4.151-4.151l0,0h-47.289c-0.833-0.181-1.695-0.181-2.527,0
	c19.316,2.982,33.44,19.807,33.031,39.348c0.047,5.677-1.187,11.292-3.611,16.425H204.143z M131.945,61.921
	c-0.188-2.151-1.993-3.798-4.152-3.791H80.684c-2.292,0-4.151,1.859-4.151,4.151v47.651c-0.002,2.192,1.774,3.973,3.967,3.975
	c0.062,0,0.123-0.002,0.185-0.004h32.308c-2.479-5.121-3.775-10.735-3.789-16.425c0.05-15.413,9.176-29.35,23.283-35.558H131.945z"
	/>
<path d="M156.492,124.553c15.41-4.485,24.266-20.613,19.779-36.023c-4.486-15.41-20.614-24.265-36.023-19.779
	c-15.41,4.486-24.266,20.614-19.779,36.023c2.777,9.542,10.237,17.002,19.779,19.779c-30.244,4.143-52.808,29.941-52.885,60.467
	c-0.005,4.858,0.54,9.703,1.624,14.439h118.585c1.231-4.714,1.838-9.568,1.805-14.439
	C209.299,154.494,186.734,128.695,156.492,124.553z"/>
</svg>
