<?xml version="1.0" encoding="utf-8"?>
<!-- Generator: Adobe Illustrator 16.0.0, SVG Export Plug-In . SVG Version: 6.00 Build 0)  -->
<!DOCTYPE svg PUBLIC "-//W3C//DTD SVG 1.1//EN" "http://www.w3.org/Graphics/SVG/1.1/DTD/svg11.dtd">
<svg version="1.1" id="图层_1" xmlns="http://www.w3.org/2000/svg" xmlns:xlink="http://www.w3.org/1999/xlink" x="0px" y="0px"
	 width="200px" height="200px" viewBox="0 0 200 200" style="enable-background:new 0 0 200 200;" xml:space="preserve">
<path d="M50.09,50c0,27.613,22.387,50,50,50s50-22.387,50-50s-22.387-50-50-50S50.09,22.387,50.09,50z M131.143,114.285H68.857
	c-38,0-68.857,30.857-68.857,68.857V200h200v-16.857C200,145.143,169.143,114.285,131.143,114.285z M142.316,142l-42.711,43.123
	l-0.012,0.012c-0.785,0.777-2.051,0.771-2.828-0.012l-24.742-27.211c-0.395-0.444-0.436-1.1-0.1-1.59l4.637-6.455
	c0.004-0.004,0.006-0.01,0.01-0.012c0.333-0.44,0.959-0.528,1.4-0.197l18.596,13.459c0.947,0.702,2.249,0.678,3.168-0.061
	l36.686-26.912c0.438-0.371,1.086-0.35,1.498,0.049l4.418,4.459C142.682,141.038,142.672,141.625,142.316,142z"/>
</svg>
