<?xml version="1.0" encoding="utf-8"?>
<!-- Generator: Adobe Illustrator 16.0.0, SVG Export Plug-In . SVG Version: 6.00 Build 0)  -->
<!DOCTYPE svg PUBLIC "-//W3C//DTD SVG 1.1//EN" "http://www.w3.org/Graphics/SVG/1.1/DTD/svg11.dtd">
<svg version="1.1" id="图层_1" xmlns="http://www.w3.org/2000/svg" xmlns:xlink="http://www.w3.org/1999/xlink" x="0px" y="0px"
	 width="256px" height="256px" viewBox="768 347.5 256 256" enable-background="new 768 347.5 256 256" xml:space="preserve">
<path d="M856,359.5c0-6.65-5.35-12-12-12s-12,5.35-12,12v20c-17.65,0-32,14.35-32,32h-20c-6.65,0-12,5.35-12,12s5.35,12,12,12h20v28
	h-20c-6.65,0-12,5.35-12,12c0,6.649,5.35,12,12,12h20v28h-20c-6.65,0-12,5.35-12,12c0,6.649,5.35,12,12,12h20
	c0,17.649,14.35,32,32,32v20c0,6.649,5.35,12,12,12s12-5.351,12-12v-20h28v20c0,6.649,5.35,12,12,12c6.649,0,12-5.351,12-12v-20h28
	v20c0,6.649,5.351,12,12,12s12-5.351,12-12v-20c17.649,0,32-14.351,32-32h20c6.649,0,12-5.351,12-12c0-6.65-5.351-12-12-12h-20v-28
	h20c6.649,0,12-5.351,12-12c0-6.65-5.351-12-12-12h-20v-28h20c6.649,0,12-5.35,12-12s-5.351-12-12-12h-20c0-17.65-14.351-32-32-32
	v-20c0-6.65-5.351-12-12-12s-12,5.35-12,12v20h-28v-20c0-6.65-5.351-12-12-12c-6.65,0-12,5.35-12,12v20h-28V359.5z M848,411.5h96
	c8.851,0,16,7.15,16,16v96c0,8.85-7.149,16-16,16h-96c-8.85,0-16-7.15-16-16v-96C832,418.65,839.15,411.5,848,411.5z M944,427.5h-96
	v96h96V427.5z"/>
</svg>
