<?xml version="1.0" encoding="utf-8"?>
<!-- Generator: Adobe Illustrator 16.0.0, SVG Export Plug-In . SVG Version: 6.00 Build 0)  -->
<!DOCTYPE svg PUBLIC "-//W3C//DTD SVG 1.1//EN" "http://www.w3.org/Graphics/SVG/1.1/DTD/svg11.dtd" [
	<!ENTITY ns_extend "http://ns.adobe.com/Extensibility/1.0/">
	<!ENTITY ns_ai "http://ns.adobe.com/AdobeIllustrator/10.0/">
	<!ENTITY ns_graphs "http://ns.adobe.com/Graphs/1.0/">
	<!ENTITY ns_vars "http://ns.adobe.com/Variables/1.0/">
	<!ENTITY ns_imrep "http://ns.adobe.com/ImageReplacement/1.0/">
	<!ENTITY ns_sfw "http://ns.adobe.com/SaveForWeb/1.0/">
	<!ENTITY ns_custom "http://ns.adobe.com/GenericCustomNamespace/1.0/">
	<!ENTITY ns_adobe_xpath "http://ns.adobe.com/XPath/1.0/">
]>
<svg version="1.1" id="图层_1" xmlns:x="&ns_extend;" xmlns:i="&ns_ai;" xmlns:graph="&ns_graphs;"
	 xmlns="http://www.w3.org/2000/svg" xmlns:xlink="http://www.w3.org/1999/xlink" x="0px" y="0px" width="256px" height="256px"
	 viewBox="0 0 256 256" style="enable-background:new 0 0 256 256;" xml:space="preserve">
<metadata>
	<sfw  xmlns="&ns_sfw;">
		<slices></slices>
		<sliceSourceBounds  height="256" width="256" x="-0.5" y="0.5" bottomLeftOrigin="true"></sliceSourceBounds>
	</sfw>
</metadata>
<path d="M36.571,0C16.4,0,0,16.4,0,36.571v182.857C0,239.601,16.4,256,36.571,256h182.857C239.601,256,256,239.601,256,219.429
	V36.571C256,16.4,239.601,0,219.429,0H36.571z M225,81.09v50.654v50.652c0,6.479-3.057,11.69-6.857,11.69
	c-3.8,0-6.856-5.211-6.856-11.69v-38.963h-36.572v38.963c0,6.479-3.057,11.69-6.856,11.69c-3.801,0-6.857-5.211-6.857-11.69V81.09
	c0-6.477,3.057-11.689,6.857-11.689c3.8,0,6.856,5.212,6.856,11.689v38.964h36.572V81.09c0-6.477,3.057-11.689,6.856-11.689
	C221.943,69.401,225,74.613,225,81.09z M102.784,72.716h28.308c15.632,0,28.309,20.067,28.309,44.809
	c0,24.743-12.677,44.81-28.309,44.81h-20.923v23.377c0,6.478-3.292,11.688-7.385,11.688s-7.385-5.211-7.385-11.688v-35.066V84.406
	C95.399,77.929,98.692,72.716,102.784,72.716z M131.092,138.956c7.477,0,13.539-9.596,13.539-21.431s-6.063-21.43-13.539-21.43
	h-20.923v42.861H131.092z M37.8,133.522c0,20.658,8.596,37.405,19.2,37.405s19.2-16.747,19.2-37.405
	c0-20.659-8.596-37.406-19.2-37.406S37.8,112.864,37.8,133.522z M57,195.864c-17.673,0-32-27.91-32-62.342
	C25,99.091,39.327,71.18,57,71.18c17.673,0,32,27.912,32,62.343C89,167.954,74.673,195.864,57,195.864z"/>
</svg>
