<?xml version="1.0" encoding="utf-8"?>
<!-- Generator: Adobe Illustrator 16.0.0, SVG Export Plug-In . SVG Version: 6.00 Build 0)  -->
<!DOCTYPE svg PUBLIC "-//W3C//DTD SVG 1.1//EN" "http://www.w3.org/Graphics/SVG/1.1/DTD/svg11.dtd" [
	<!ENTITY ns_extend "http://ns.adobe.com/Extensibility/1.0/">
	<!ENTITY ns_ai "http://ns.adobe.com/AdobeIllustrator/10.0/">
	<!ENTITY ns_graphs "http://ns.adobe.com/Graphs/1.0/">
	<!ENTITY ns_vars "http://ns.adobe.com/Variables/1.0/">
	<!ENTITY ns_imrep "http://ns.adobe.com/ImageReplacement/1.0/">
	<!ENTITY ns_sfw "http://ns.adobe.com/SaveForWeb/1.0/">
	<!ENTITY ns_custom "http://ns.adobe.com/GenericCustomNamespace/1.0/">
	<!ENTITY ns_adobe_xpath "http://ns.adobe.com/XPath/1.0/">
]>
<svg version="1.1" id="图层_1" xmlns:x="&ns_extend;" xmlns:i="&ns_ai;" xmlns:graph="&ns_graphs;"
	 xmlns="http://www.w3.org/2000/svg" xmlns:xlink="http://www.w3.org/1999/xlink" x="0px" y="0px" width="256px" height="256px"
	 viewBox="0 0 256 256" enable-background="new 0 0 256 256" xml:space="preserve">
<metadata>
	<sfw  xmlns="&ns_sfw;">
		<slices></slices>
		<sliceSourceBounds  height="250" width="256" y="3.5" x="-0.5" bottomLeftOrigin="true"></sliceSourceBounds>
	</sfw>
</metadata>
<path d="M42.667,29.786C42.667,14.998,52.222,3,64,3h128c11.777,0,21.334,11.998,21.334,26.786v169.642H42.667V29.786z
	 M181.777,56.013c-4.178-5.246-10.934-5.246-15.066,0l-49.333,61.942L96.489,91.728c-4.178-5.246-10.933-5.246-15.066,0
	s-4.178,13.728,0,18.917l28.444,35.714c4.178,5.245,10.933,5.245,15.066,0l56.844-71.373c4.178-5.246,4.178-13.728,0-18.918V56.013z
	 M0,172.643c0-14.788,9.556-26.785,21.333-26.785h7.111v71.429h199.111v-71.429h7.11c11.778,0,21.334,11.997,21.334,26.785v53.572
	c0,14.787-9.556,26.785-21.334,26.785H21.333C9.556,253,0,241.002,0,226.215V172.643z"/>
</svg>
