<?xml version="1.0" encoding="utf-8"?>
<!-- Generator: Adobe Illustrator 16.0.0, SVG Export Plug-In . SVG Version: 6.00 Build 0)  -->
<!DOCTYPE svg PUBLIC "-//W3C//DTD SVG 1.1//EN" "http://www.w3.org/Graphics/SVG/1.1/DTD/svg11.dtd">
<svg version="1.1" id="图层_1" xmlns="http://www.w3.org/2000/svg" xmlns:xlink="http://www.w3.org/1999/xlink" x="0px" y="0px"
	 width="256px" height="256px" viewBox="768 347.5 256 256" enable-background="new 768 347.5 256 256" xml:space="preserve">
<path d="M814.25,347.5H872c20,0,26,12,32,24s12,24,32,24h42.6c7.4,0,13.4,6,13.4,13.4c0,1.7-0.351,3.4-0.95,5l-18.25,45.6l-12.8,32
	H832l-8-32l-23.55-94.3c-0.3-1.15-0.45-2.3-0.45-3.45C800,353.9,806.4,347.5,814.25,347.5z M807.5,459.5l8,32H808c-4.4,0-8,3.6-8,8
	c0,4.399,3.6,8,8,8h24h128h24c4.4,0,8-3.601,8-8c0-4.4-3.6-8-8-8h-6.75l12.8-32h9.95c13.25,0,24,10.75,24,24v56H768v-56
	c0-13.25,10.75-24,24-24H807.5z M768,555.5h256v24c0,13.25-10.75,24-24,24H792c-13.25,0-24-10.75-24-24V555.5z"/>
</svg>
