<?xml version="1.0" encoding="utf-8"?>
<!-- Generator: Adobe Illustrator 16.0.0, SVG Export Plug-In . SVG Version: 6.00 Build 0)  -->
<!DOCTYPE svg PUBLIC "-//W3C//DTD SVG 1.1//EN" "http://www.w3.org/Graphics/SVG/1.1/DTD/svg11.dtd">
<svg version="1.1" id="图层_1" xmlns="http://www.w3.org/2000/svg" xmlns:xlink="http://www.w3.org/1999/xlink" x="0px" y="0px"
	 width="256px" height="256px" viewBox="768 347.5 256 256" enable-background="new 768 347.5 256 256" xml:space="preserve">
<path d="M838,528.86c-3.92,6.4-6,13.721-6,21.24c-4,1.4-8.32,2.2-12.8,2.2c-21.2,0-38.4-17.2-38.4-38.399V398.7
	c-7.08,0-12.8-5.72-12.8-12.8s5.72-12.8,12.8-12.8h25.6H832h25.6c7.08,0,12.8,5.72,12.8,12.8s-5.72,12.8-12.8,12.8v98.359L838,528.9
	V528.86z M806.4,398.7v38.4H832v-38.4H806.4z M908.8,373.1H960h12.8c7.08,0,12.8,5.72,12.8,12.8s-5.72,12.8-12.8,12.8v60.36
	l47.08,76.52c2.68,4.36,4.12,9.399,4.12,14.56c0,15.32-12.44,27.761-27.76,27.761H872.56c-15.32,0-27.76-12.44-27.76-27.761
	c0-5.12,1.44-10.16,4.12-14.56L896,459.06V398.7c-7.08,0-12.8-5.72-12.8-12.8s5.72-12.8,12.8-12.8H908.8z M921.6,398.7v64
	c0,2.36-0.64,4.68-1.88,6.72L900.2,501.1H968.6l-19.52-31.68c-1.24-2-1.88-4.32-1.88-6.72v-64H921.6z"/>
</svg>
