<?xml version="1.0" encoding="iso-8859-1"?>
<!-- Generator: Adobe Illustrator 16.0.0, SVG Export Plug-In . SVG Version: 6.00 Build 0)  -->
<!DOCTYPE svg PUBLIC "-//W3C//DTD SVG 1.1//EN" "http://www.w3.org/Graphics/SVG/1.1/DTD/svg11.dtd" [
	<!ENTITY st0 "fill:#2C2C2C;">
]>
<svg version="1.1" id="&#x56FE;&#x5C42;_1" xmlns="http://www.w3.org/2000/svg" xmlns:xlink="http://www.w3.org/1999/xlink" x="0px"
	 y="0px" width="256px" height="256px" viewBox="0 0 256 256" style="enable-background:new 0 0 256 256;" xml:space="preserve">
<path style="&st0;" d="M155.264,197.473H96.768c-17.438-0.949-31.116-15.322-31.2-32.785c0-14.783,9.92-27.295,23.52-31.359
	c1.328-19.104,16.48-34.192,34.976-34.192c13.825,0,25.728,8.416,31.456,20.608c19.424,1.216,34.832,18.08,34.832,38.8
	C190.352,180.048,174.624,197.473,155.264,197.473 M24.8,46.752c0-5.184,4.224-9.408,9.424-9.408H88.4
	c5.196,0.303,9.163,4.761,8.859,9.957c-0.278,4.773-4.086,8.581-8.859,8.859H34.24c-5.196,0.009-9.416-4.196-9.424-9.392
	c0-0.005,0-0.011,0-0.016 M226.848,50.912h-80c0,0-16.128-16.096-23.728-23.712C116.288,20,107.648,16,98.848,16h-69.76
	C13.03,16.018,0.018,29.03,0,45.088V203.84c0.018,16.058,13.03,29.07,29.088,29.088h197.76c16.058-0.018,29.07-13.03,29.088-29.088
	V80C255.918,63.942,242.905,50.93,226.848,50.912"/>
</svg>
