<?xml version="1.0" encoding="iso-8859-1"?>
<!-- Generator: Adobe Illustrator 16.0.0, SVG Export Plug-In . SVG Version: 6.00 Build 0)  -->
<!DOCTYPE svg PUBLIC "-//W3C//DTD SVG 1.1//EN" "http://www.w3.org/Graphics/SVG/1.1/DTD/svg11.dtd">
<svg version="1.1" id="&#x56FE;&#x5C42;_1" xmlns="http://www.w3.org/2000/svg" xmlns:xlink="http://www.w3.org/1999/xlink" x="0px"
	 y="0px" width="256px" height="256px" viewBox="0 0 256 256" style="enable-background:new 0 0 256 256;" xml:space="preserve">
<path d="M230.77,42.667c-3.015,8.925-12.183,15.124-22.719,15.358H48.317c-10.535-0.235-19.702-6.434-22.716-15.358l-8.145-27.277
	c-2.319-6.116,1.411-12.735,8.331-14.784c1.658-0.491,3.409-0.687,5.153-0.575h195.03c7.277-0.466,13.606,4.371,14.135,10.804
	c0.126,1.542-0.095,3.09-0.65,4.555L230.77,42.667L230.77,42.667z"/>
<path d="M248.596,30.748l-4.345,15.358c-4.922,13.909-19.267,23.539-35.748,23.998H48.318C31.79,69.767,17.373,60.089,12.569,46.106
	L7.771,30.748c-3.159,4.869-4.813,10.386-4.796,15.999v177.257C2.975,241.676,19.183,256,39.176,256h177.563
	c19.995,0,36.202-14.324,36.202-31.996V46.106C253.226,40.721,251.716,35.381,248.596,30.748L248.596,30.748z M121.209,192.043
	H98.912v-41.252H54.317v41.252H32.02V92.046h22.297v40.348h44.595V92.046h22.294v99.997H121.209z M206.343,192.043l-16.419-26.015
	c-3.38-5.38-6.15-8.844-8.313-10.393c-2.16-1.549-4.459-2.324-6.893-2.324h-6.757v38.734h-22.296v-100h36.69
	c24.909,0,37.364,9.04,37.364,27.113c0,6.801-2.086,12.632-6.25,17.495c-4.167,4.863-9.897,8.285-17.196,10.263v0.259
	c4.821,1.551,10.157,6.629,16.015,15.236l19.73,29.631H206.343L206.343,192.043z"/>
<path d="M173.116,108.25h-10.03v28.792h9.677c4.618,0,8.331-1.453,11.136-4.358c2.808-2.902,4.21-6.527,4.21-10.876
	C188.109,112.769,183.112,108.25,173.116,108.25L173.116,108.25z"/>
</svg>
