<?xml version="1.0" encoding="iso-8859-1"?>
<!-- Generator: Adobe Illustrator 16.0.0, SVG Export Plug-In . SVG Version: 6.00 Build 0)  -->
<!DOCTYPE svg PUBLIC "-//W3C//DTD SVG 1.1//EN" "http://www.w3.org/Graphics/SVG/1.1/DTD/svg11.dtd">
<svg version="1.1" id="&#x56FE;&#x5C42;_1" xmlns="http://www.w3.org/2000/svg" xmlns:xlink="http://www.w3.org/1999/xlink" x="0px"
	 y="0px" width="256px" height="256px" viewBox="-26.047 -28 256 256" style="enable-background:new -26.047 -28 256 256;"
	 xml:space="preserve">
<path d="M-18.633,3.749c-1.798-1.667-2.943-3.021-3.434-4.062c-0.49-1.042-0.736-2.5-0.736-4.375V-7.5
	c0-5.417,1.063-9.688,3.188-12.813C-17.489-23.438-13.811-25-8.58-25l202.056,0.313c5.395,0,9.154,1.458,11.28,4.375
	c2.124,2.917,3.188,6.979,3.188,12.188l0.245,3.437c0,1.875-0.164,3.177-0.49,3.906c-0.327,0.729-1.635,2.24-3.924,4.531
	L103.483,80.62c-1.635,0.833-3.638,1.979-6.008,3.438c-2.37,1.458-3.964,2.291-4.782,2.5c-0.98,0-2.452-0.573-4.414-1.718
	c-1.962-1.146-4.168-2.656-6.621-4.532L-18.633,3.749z M132.174,130.306c-3.433,0-6.213,0.938-8.337,2.812
	c-2.127,1.875-3.802,4.272-5.028,7.188c-1.226,2.916-2.043,6.196-2.452,9.843c-0.408,3.646-0.612,7.135-0.612,10.469v21.874v3.749
	c0,1.251,0.082,2.396,0.245,3.438h-33.84c-11.606,0-22.478-0.052-32.614-0.156c-10.135-0.104-19.044-0.156-26.728-0.156H5.888
	c-5.885,0-10.708-0.989-14.468-2.97c-3.76-1.978-6.703-4.53-8.827-7.655c-2.125-3.124-3.597-6.718-4.414-10.779
	c-0.818-4.063-1.226-8.282-1.226-12.657V39.684c0-4.375,0.817-7.135,2.452-8.28c1.634-1.146,3.678-0.573,6.13,1.719
	c0.817,0.625,2.289,1.822,4.414,3.593c2.125,1.771,4.659,3.802,7.601,6.093c2.942,2.292,6.007,4.74,9.195,7.344
	c3.188,2.604,6.212,5.052,9.073,7.343c2.861,2.292,5.313,4.271,7.356,5.938c2.044,1.667,3.392,2.708,4.046,3.125
	c2.289,1.875,3.596,4.218,3.923,7.031c0.327,2.812,0.082,5.26-0.735,7.343c-0.654,2.083-1.635,4.792-2.943,8.125
	c-1.308,3.333-2.697,6.718-4.168,10.156c-1.471,3.438-2.902,6.718-4.292,9.844c-1.39,3.124-2.329,5.521-2.82,7.187
	c-0.817,2.916-0.654,4.896,0.491,5.938c1.144,1.042,2.942,0.625,5.395-1.25c0.49-0.416,1.839-2.03,4.046-4.845
	c2.207-2.811,4.536-5.936,6.988-9.374c2.452-3.437,4.782-6.666,6.989-9.687c2.207-3.02,3.719-4.844,4.536-5.468
	c1.472-1.667,3.392-2.865,5.763-3.594c2.371-0.729,4.455-0.468,6.253,0.781c1.144,0.834,2.697,2.083,4.659,3.75
	c1.962,1.666,4.128,3.49,6.499,5.468c2.37,1.979,4.782,4.011,7.234,6.094l6.621,5.625c1.961,1.666,4.045,2.708,6.253,3.124
	c2.207,0.418,4.332,0.522,6.375,0.313c2.044-0.21,3.883-0.677,5.518-1.406s2.861-1.406,3.679-2.031s2.37-1.823,4.658-3.594
	c2.29-1.771,4.782-3.698,7.48-5.781c2.697-2.083,5.23-4.063,7.602-5.938c2.371-1.875,4.127-3.229,5.271-4.063l30.897-24.373
	c0.325-0.208,1.349-1.042,3.065-2.5c1.716-1.458,3.841-3.229,6.374-5.312c2.534-2.083,5.314-4.375,8.339-6.875
	c3.024-2.5,5.885-4.843,8.582-7.031c2.696-2.187,5.189-4.218,7.479-6.093c2.289-1.875,3.924-3.229,4.904-4.063
	c3.105-2.499,5.518-3.489,7.234-2.968c1.716,0.521,2.574,2.24,2.574,5.156v81.246c-4.577-4.791-9.033-9.271-13.364-13.437
	c-4.332-4.167-8.296-7.708-11.893-10.625c-3.597-3.125-6.743-4.218-9.44-3.281c-2.698,0.937-4.904,2.969-6.621,6.093
	c-1.716,3.125-3.023,6.771-3.924,10.938c-0.898,4.166-1.349,7.916-1.349,11.248c0,2.292-0.04,4.169-0.122,5.626
	c-0.081,1.459-0.123,2.708-0.123,3.749c-0.164,1.044-0.245,1.877-0.245,2.501h-3.679H132.174L132.174,130.306z M223.638,163.116
	c2.125,2.083,3.229,5,3.311,8.751c0.081,3.749-0.775,6.457-2.574,8.123c-2.452,2.501-5.313,5.469-8.582,8.906
	c-3.271,3.438-6.662,6.927-10.178,10.469c-3.514,3.541-6.947,7.082-10.298,10.624c-3.352,3.541-6.417,6.666-9.196,9.374
	c-3.433,3.542-5.844,5.417-7.233,5.626c-1.391,0.208-2.085-2.501-2.085-8.125v-14.062c0-3.542-0.694-6.459-2.083-8.751
	c-1.391-2.291-3.229-3.436-5.518-3.436h-28.445c-2.288,0-4.536-1.042-6.743-3.125c-2.207-2.084-3.311-4.791-3.311-8.125v-15.938
	c0-5.833,0.735-9.374,2.207-10.624c1.471-1.249,4.086-1.875,7.847-1.875h4.904c1.472,0,3.146,0.052,5.026,0.155
	c1.881,0.104,4.127,0.157,6.743,0.157h10.3c3.27,0,5.599-0.729,6.989-2.188c1.389-1.457,2.083-4.062,2.083-7.813v-13.749
	c0-3.75,0.491-6.146,1.472-7.187c0.98-1.042,2.778-0.209,5.395,2.499c2.616,2.5,5.64,5.521,9.072,9.063
	c3.435,3.541,6.989,7.136,10.667,10.781c3.679,3.645,7.275,7.292,10.789,10.937c3.516,3.646,6.662,6.822,9.441,9.532V163.116z"/>
</svg>
