<?xml version="1.0" encoding="iso-8859-1"?>
<!-- Generator: Adobe Illustrator 16.0.0, SVG Export Plug-In . SVG Version: 6.00 Build 0)  -->
<!DOCTYPE svg PUBLIC "-//W3C//DTD SVG 1.1//EN" "http://www.w3.org/Graphics/SVG/1.1/DTD/svg11.dtd" [
	<!ENTITY st0 "fill:#D93416;">
]>
<svg version="1.1" id="&#x56FE;&#x5C42;_1" xmlns="http://www.w3.org/2000/svg" xmlns:xlink="http://www.w3.org/1999/xlink" x="0px"
	 y="0px" width="256px" height="256px" viewBox="0 0 256 256" style="enable-background:new 0 0 256 256;" xml:space="preserve">
<path style="&st0;" d="M147.773,5.894c-3.354-3.315-7.578-3.815-11.226-1.329L60.809,56.203H14.793C8.28,56.203,3,64.262,3,74.203
	v107.585c0,9.939,5.28,17.999,11.793,17.999h46.016l75.741,51.646c3.647,2.491,7.875,1.987,11.226-1.337
	c3.354-3.316,5.378-9.001,5.378-15.1V21.002C153.153,14.9,151.129,9.213,147.773,5.894z M241.206,110.323h-48.778
	c-6.514,0.008-11.79,8.073-11.784,18.013c0.004,9.933,5.277,17.981,11.784,17.988h48.778c6.515,0,11.794-8.059,11.794-18
	C253,118.382,247.721,110.323,241.206,110.323z M185.481,83.851c2.292,0.001,4.533-1.023,6.449-2.946l40.271-40.272
	c5.46-5.42,7.008-16.57,3.458-24.904c-3.552-8.334-10.857-10.696-16.317-5.276c-0.023,0.023-0.046,0.045-0.067,0.068l-40.271,40.27
	c-5.447,5.447-6.97,16.603-3.401,24.917c0.001,0.001,0.001,0.001,0.001,0.001C177.784,80.796,181.498,83.859,185.481,83.851z
	 M232.204,216.016l-40.272-40.274c-5.46-5.419-12.764-3.057-16.315,5.278c-3.534,8.293-2.021,19.384,3.389,24.834l40.271,40.272
	c5.438,5.45,12.741,3.14,16.313-5.161c0.004-0.01,0.008-0.021,0.013-0.032C239.173,232.62,237.651,221.464,232.204,216.016
	L232.204,216.016z"/>
</svg>
