<?xml version="1.0" encoding="iso-8859-1"?>
<!-- Generator: Adobe Illustrator 16.0.0, SVG Export Plug-In . SVG Version: 6.00 Build 0)  -->
<!DOCTYPE svg PUBLIC "-//W3C//DTD SVG 1.1//EN" "http://www.w3.org/Graphics/SVG/1.1/DTD/svg11.dtd" [
	<!ENTITY st0 "fill:#231815;">
]>
<svg version="1.1" id="&#x56FE;&#x5C42;_1" xmlns="http://www.w3.org/2000/svg" xmlns:xlink="http://www.w3.org/1999/xlink" x="0px"
	 y="0px" width="256px" height="256px" viewBox="0 0 256 256" style="enable-background:new 0 0 256 256;" xml:space="preserve">
<path style="&st0;" d="M119.667,118.384v-19.23H86.333c-9.205,0-16.667-8.61-16.667-19.23V22.231C69.666,11.61,77.129,3,86.333,3
	h83.333c9.204,0,16.666,8.611,16.666,19.231v57.692c0,10.621-7.462,19.23-16.666,19.23h-33.334v19.23h63.333
	c1.835,0,3.334,1.731,3.334,3.847v34.616h33.333c9.204,0,16.667,8.61,16.667,19.23v57.692c0,10.62-7.463,19.23-16.667,19.23H153
	c-9.204,0-16.667-8.61-16.667-19.23v-57.692c0-10.62,7.463-19.23,16.667-19.23h33.333v-19.231H69.666v19.231H103
	c9.205,0,16.667,8.61,16.667,19.23v57.692c0,10.62-7.462,19.23-16.667,19.23H19.666C10.461,253,3,244.39,3,233.77v-57.692
	c0-10.62,7.462-19.23,16.667-19.23H53v-34.616c0-2.116,1.5-3.847,3.333-3.847H119.667z"/>
</svg>
