<?xml version="1.0" encoding="utf-8"?>
<!-- Generator: Adobe Illustrator 16.0.0, SVG Export Plug-In . SVG Version: 6.00 Build 0)  -->
<!DOCTYPE svg PUBLIC "-//W3C//DTD SVG 1.1//EN" "http://www.w3.org/Graphics/SVG/1.1/DTD/svg11.dtd" [
	<!ENTITY ns_extend "http://ns.adobe.com/Extensibility/1.0/">
	<!ENTITY ns_ai "http://ns.adobe.com/AdobeIllustrator/10.0/">
	<!ENTITY ns_graphs "http://ns.adobe.com/Graphs/1.0/">
	<!ENTITY ns_vars "http://ns.adobe.com/Variables/1.0/">
	<!ENTITY ns_imrep "http://ns.adobe.com/ImageReplacement/1.0/">
	<!ENTITY ns_sfw "http://ns.adobe.com/SaveForWeb/1.0/">
	<!ENTITY ns_custom "http://ns.adobe.com/GenericCustomNamespace/1.0/">
	<!ENTITY ns_adobe_xpath "http://ns.adobe.com/XPath/1.0/">
]>
<svg version="1.1" id="图层_1" xmlns:x="&ns_extend;" xmlns:i="&ns_ai;" xmlns:graph="&ns_graphs;"
	 xmlns="http://www.w3.org/2000/svg" xmlns:xlink="http://www.w3.org/1999/xlink" x="0px" y="0px" width="256px" height="256px"
	 viewBox="0 0 256 256" style="enable-background:new 0 0 256 256;" xml:space="preserve">
<metadata>
	<sfw  xmlns="&ns_sfw;">
		<slices></slices>
		<sliceSourceBounds  height="256" width="256" x="-0.5" y="0.5" bottomLeftOrigin="true"></sliceSourceBounds>
	</sfw>
</metadata>
<path d="M36.571,0C16.4,0,0,16.4,0,36.571v182.857C0,239.602,16.4,256,36.571,256h182.857C239.602,256,256,239.602,256,219.43
	V36.571C256,16.4,239.602,0,219.43,0H36.571z M124.297,84.826v50.844v50.843c0,6.503-4.599,11.733-10.318,11.733
	c-5.717,0-10.317-5.23-10.317-11.733v-39.11H48.636v39.11c0,6.503-4.601,11.733-10.317,11.733c-5.718,0-10.318-5.23-10.318-11.733
	V84.826c0-6.502,4.601-11.733,10.318-11.733c5.717,0,10.317,5.23,10.317,11.733v39.11h55.026v-39.11
	c0-6.502,4.6-11.733,10.318-11.733C119.697,73.093,124.297,78.323,124.297,84.826z M142.815,75.93h48.147
	c20.462,0,37.038,17.502,37.038,39.11c0,17.893-11.39,33-26.945,37.644l21.018,29.627c3.704,5.182,2.685,12.515-2.221,16.426
	c-4.908,3.91-11.853,2.835-15.556-2.345l-30.001-42.24h-20.37v35.198c0,6.504-4.953,11.734-11.11,11.734
	c-6.158,0-11.112-5.23-11.112-11.734v-46.931V87.664C131.703,81.16,136.657,75.93,142.815,75.93z M179.852,130.686h11.111
	c8.194,0,14.814-6.992,14.814-15.645c0-8.653-6.62-15.644-14.814-15.644h-37.037v31.289H179.852z"/>
</svg>
