<?xml version="1.0" encoding="utf-8"?>
<!-- Generator: Adobe Illustrator 16.0.0, SVG Export Plug-In . SVG Version: 6.00 Build 0)  -->
<!DOCTYPE svg PUBLIC "-//W3C//DTD SVG 1.1//EN" "http://www.w3.org/Graphics/SVG/1.1/DTD/svg11.dtd" [
	<!ENTITY ns_extend "http://ns.adobe.com/Extensibility/1.0/">
	<!ENTITY ns_ai "http://ns.adobe.com/AdobeIllustrator/10.0/">
	<!ENTITY ns_graphs "http://ns.adobe.com/Graphs/1.0/">
	<!ENTITY ns_vars "http://ns.adobe.com/Variables/1.0/">
	<!ENTITY ns_imrep "http://ns.adobe.com/ImageReplacement/1.0/">
	<!ENTITY ns_sfw "http://ns.adobe.com/SaveForWeb/1.0/">
	<!ENTITY ns_custom "http://ns.adobe.com/GenericCustomNamespace/1.0/">
	<!ENTITY ns_adobe_xpath "http://ns.adobe.com/XPath/1.0/">
]>
<svg version="1.1" id="图层_1" xmlns:x="&ns_extend;" xmlns:i="&ns_ai;" xmlns:graph="&ns_graphs;"
	 xmlns="http://www.w3.org/2000/svg" xmlns:xlink="http://www.w3.org/1999/xlink" x="0px" y="0px" width="256px" height="256px"
	 viewBox="0 0 256 256" style="enable-background:new 0 0 256 256;" xml:space="preserve">
<metadata>
	<sfw  xmlns="&ns_sfw;">
		<slices></slices>
		<sliceSourceBounds  height="230" width="256" x="-0.5" y="13.5" bottomLeftOrigin="true"></sliceSourceBounds>
	</sfw>
</metadata>
<path d="M76.8,27.375V41.75H57.6c-10.6,0-19.2,9.658-19.2,21.563v21.563h12.8h153.6h12.8V63.313c0-11.904-8.6-21.563-19.199-21.563
	h-19.199V27.375C179.201,19.424,173.48,13,166.4,13c-7.079,0-12.801,6.424-12.801,14.375V41.75h-51.2V27.375
	C102.4,19.424,96.68,13,89.6,13S76.8,19.424,76.8,27.375z M98.96,243h58.08c-2.16-4.222-3.44-9.119-3.44-14.376
	c0-19.675,11.76-36.296,27.84-41.462c-9.198-9.207-15.039-22.641-15.039-37.6c0-25.336,16.681-46.314,38.399-49.818V99.25H51.2
	v0.494c21.72,3.504,38.4,24.438,38.4,49.818c0,14.957-5.8,28.393-15.04,37.6c16.08,5.166,27.84,21.787,27.84,41.462
	C102.4,233.881,101.161,238.778,98.96,243z M211.2,185.5c17.673,0,32-16.091,32-35.938s-14.327-35.938-32-35.938
	s-32,16.091-32,35.938S193.527,185.5,211.2,185.5z M192,199.875c-14.12,0-25.6,12.895-25.6,28.749c0,7.952,5.72,14.376,12.8,14.376
	h64c7.079,0,12.8-6.424,12.8-14.376c0-15.854-11.48-28.749-25.6-28.749H192z M76.8,149.563c0-19.847-14.327-35.938-32-35.938
	c-17.673,0-32,16.091-32,35.938s14.327,35.938,32,35.938C62.473,185.5,76.8,169.409,76.8,149.563z M0,228.624
	C0,236.576,5.72,243,12.8,243h64c7.08,0,12.8-6.424,12.8-14.376c0-15.854-11.48-28.749-25.6-28.749H25.6
	C11.48,199.875,0,212.77,0,228.624z"/>
</svg>
