<?xml version="1.0" encoding="iso-8859-1"?>
<!-- Generator: Adobe Illustrator 16.0.0, SVG Export Plug-In . SVG Version: 6.00 Build 0)  -->
<!DOCTYPE svg PUBLIC "-//W3C//DTD SVG 1.1//EN" "http://www.w3.org/Graphics/SVG/1.1/DTD/svg11.dtd">
<svg version="1.1" id="&#x56FE;&#x5C42;_1" xmlns="http://www.w3.org/2000/svg" xmlns:xlink="http://www.w3.org/1999/xlink" x="0px"
	 y="0px" width="256px" height="256px" viewBox="-27.707 -28 256 256" style="enable-background:new -27.707 -28 256 256;"
	 xml:space="preserve">
<path d="M214.389,83.855c3.546-2.664,6.25-3.718,8.11-3.164c1.862,0.556,2.794,2.387,2.794,5.493v103.529
	c0,7.989-0.754,14.37-2.261,19.14c-1.508,4.771-3.547,8.324-6.118,10.653c-2.571,2.33-5.584,3.828-9.042,4.496
	c-3.457,0.665-7.225,0.997-11.304,0.997h-11.701c-5.852,0-12.899-0.056-21.145-0.166c-8.243-0.11-17.42-0.166-27.525-0.166H105.08
	H73.697H44.974H21.569H6.676c-6.383,0-11.613-1.057-15.691-3.164c-4.078-2.109-7.27-4.825-9.574-8.155
	c-2.305-3.329-3.9-7.157-4.787-11.484s-1.33-8.823-1.33-13.482V89.514c0-4.439,0.887-7.268,2.659-8.488
	c1.773-1.221,3.989-0.721,6.649,1.497c0.71,0.666,2.305,1.998,4.787,3.995c2.482,1.998,5.363,4.273,8.644,6.824
	c3.28,2.552,6.782,5.271,10.505,8.156c3.725,2.885,7.181,5.548,10.373,7.989c3.191,2.44,5.939,4.606,8.244,6.491
	c2.306,1.885,3.813,3.053,4.521,3.495c2.305,1.775,3.369,3.719,3.191,5.826c-0.178,2.109-0.709,4.051-1.596,5.825
	c-0.709,1.775-1.773,4.55-3.191,8.322c-1.419,3.774-2.926,7.713-4.521,11.817c-1.597,4.104-3.104,7.989-4.522,11.651
	c-1.418,3.662-2.481,6.271-3.191,7.822c-0.886,1.775-1.196,3.276-0.93,4.493c0.265,1.223,0.753,2.166,1.462,2.831
	c0.71,0.665,1.596,0.831,2.659,0.499c1.064-0.332,2.04-1.164,2.926-2.496c0.532-0.667,1.906-2.608,4.123-5.825
	c2.216-3.22,4.654-6.713,7.313-10.488c2.659-3.771,5.187-7.266,7.579-10.484c2.395-3.218,3.945-5.269,4.654-6.158
	c0.888-1.11,2.261-2.384,4.123-3.829c1.861-1.442,3.768-1.608,5.718-0.498c1.063,0.887,2.881,2.384,5.452,4.493
	c2.571,2.107,5.408,4.383,8.511,6.825c3.103,2.44,6.206,4.938,9.309,7.488c3.103,2.552,5.718,4.605,7.846,6.158
	c2.128,1.777,4.389,2.887,6.782,3.329c2.393,0.445,4.653,0.556,6.781,0.335c2.128-0.223,4.079-0.721,5.852-1.498
	s3.103-1.499,3.989-2.166c1.063-0.665,3.103-2.107,6.116-4.327c3.014-2.218,6.295-4.716,9.841-7.49
	c3.547-2.772,6.871-5.381,9.974-7.82c3.103-2.442,5.273-4.107,6.515-4.995c1.951-1.332,3.637-1.719,5.055-1.166
	c1.418,0.555,2.925,1.721,4.521,3.496c0.71,0.665,2.128,2.665,4.256,5.994c2.127,3.327,4.478,6.934,7.047,10.817
	c2.571,3.883,4.965,7.601,7.182,11.15c2.217,3.552,3.768,5.992,4.654,7.324c1.063,1.555,2.173,2.386,3.324,2.496
	c1.152,0.112,2.127-0.22,2.926-0.997c0.798-0.778,1.33-1.888,1.595-3.327c0.267-1.445-0.044-3.054-0.93-4.829
	c-0.355-0.887-1.064-3.053-2.128-6.492c-1.064-3.44-2.262-7.266-3.591-11.485c-1.33-4.217-2.704-8.321-4.122-12.316
	c-1.418-3.992-2.483-6.879-3.192-8.654c-1.418-3.329-2.171-5.991-2.259-7.989c-0.089-1.997,0.841-3.771,2.792-5.326
	c0.532-0.442,2.747-2.22,6.648-5.325c3.901-3.109,8.245-6.603,13.031-10.487c4.788-3.883,9.442-7.545,13.963-10.985
	C209.734,87.572,212.792,85.187,214.389,83.855L214.389,83.855z M100.293,141.111c-0.887,0.223-2.395-0.332-4.521-1.664
	c-2.127-1.333-4.521-2.995-7.181-4.995c-9.397-6.434-18.794-13.091-28.191-19.973c-8.156-5.77-16.888-12.037-26.196-18.807
	c-9.309-6.769-17.952-13.038-25.931-18.808v-59.92h0.531v-0.333c0-5.77,0.887-11.151,2.659-16.145
	c1.773-4.993,4.167-9.376,7.181-13.148c3.015-3.773,6.517-6.77,10.506-8.989C33.139-23.89,37.438-25,42.049-25h116.488
	c4.609,0,8.954,1.11,13.032,3.329c4.077,2.22,7.624,5.216,10.638,8.989c3.015,3.772,5.407,8.155,7.182,13.148
	c1.772,4.994,2.659,10.375,2.659,16.145v0.333h0.531v59.92c-8.156,5.771-16.889,12.04-26.197,18.808
	c-9.308,6.77-18.04,13.038-26.195,18.807c-9.574,6.882-18.973,13.648-28.191,20.308c-1.597,1.11-3.68,2.44-6.25,3.995
	C103.174,140.334,101.356,141.111,100.293,141.111L100.293,141.111z M58.804,37.583h83.244V16.611H58.804V37.583z M58.804,79.195
	h83.244V58.222H58.804V79.195z"/>
</svg>
