<?xml version="1.0" encoding="iso-8859-1"?>
<!-- Generator: Adobe Illustrator 16.0.0, SVG Export Plug-In . SVG Version: 6.00 Build 0)  -->
<!DOCTYPE svg PUBLIC "-//W3C//DTD SVG 1.1//EN" "http://www.w3.org/Graphics/SVG/1.1/DTD/svg11.dtd" [
	<!ENTITY st0 "fill:#485899;">
	<!ENTITY st1 "fill:#333551;">
]>
<svg version="1.1" id="&#x56FE;&#x5C42;_1" xmlns="http://www.w3.org/2000/svg" xmlns:xlink="http://www.w3.org/1999/xlink" x="0px"
	 y="0px" width="256px" height="256px" viewBox="0 0 256 256" style="enable-background:new 0 0 256 256;" xml:space="preserve">
<path style="&st1;" d="M80.61,46.836c0,25.867,20.969,46.836,46.836,46.836c25.867,0,46.837-20.97,46.837-46.836
	c0.004-25.867-20.961-46.84-46.828-46.845c-25.867-0.004-46.84,20.961-46.845,46.828C80.61,46.825,80.61,46.831,80.61,46.836z"/>
<path style="&st1;" d="M2.226,195.404c-0.009,25.867,20.953,46.844,46.82,46.853c25.867,0.009,46.843-20.953,46.852-46.819
	c0-0.012,0-0.021,0-0.033c0.004-25.866-20.961-46.84-46.828-46.844c-25.867-0.005-46.84,20.961-46.845,46.827
	C2.226,195.394,2.226,195.399,2.226,195.404z"/>
<path style="&st0;" d="M159.828,195.404c0,25.867,20.97,46.837,46.836,46.837c25.867,0,46.837-20.97,46.837-46.837
	c0.011-25.866-20.948-46.845-46.815-46.855c-25.867-0.012-46.846,20.947-46.857,46.814
	C159.828,195.377,159.828,195.391,159.828,195.404L159.828,195.404z"/>
<path style="&st0;" d="M180.953,43.778v3.058c0.035,8.88-2.162,17.625-6.393,25.433c23.46,15.695,37.658,41.96,37.941,70.184
	c10.129,1.01,19.766,4.863,27.796,11.119V143.01C240.25,101.542,217.465,63.44,180.953,43.778z M160.246,221.395
	c-20.7,8.518-43.926,8.518-64.626,0c-4.924,8.727-12.194,15.9-20.986,20.707c16.201,8.887,34.336,13.659,52.812,13.898
	c18.815-0.007,37.321-4.789,53.785-13.898C172.471,237.254,165.211,230.09,160.246,221.395z"/>
<path style="&st1;" d="M74.217,46.836V43.5c-36.63,19.695-59.48,57.92-59.483,99.509v10.701
	c7.995-6.361,17.636-10.314,27.796-11.396c0.477-28.055,14.781-54.063,38.219-69.489C76.42,64.85,74.173,55.911,74.217,46.836z"/>
</svg>
