<?xml version="1.0" encoding="iso-8859-1"?>
<!-- Generator: Adobe Illustrator 16.0.0, SVG Export Plug-In . SVG Version: 6.00 Build 0)  -->
<!DOCTYPE svg PUBLIC "-//W3C//DTD SVG 1.1//EN" "http://www.w3.org/Graphics/SVG/1.1/DTD/svg11.dtd" [
	<!ENTITY st0 "fill:#272636;">
]>
<svg version="1.1" id="&#x56FE;&#x5C42;_1" xmlns="http://www.w3.org/2000/svg" xmlns:xlink="http://www.w3.org/1999/xlink" x="0px"
	 y="0px" width="256px" height="256px" viewBox="0 0 256 256" style="enable-background:new 0 0 256 256;" xml:space="preserve">
<path style="&st0;" d="M211.413,2.828H40.745c-23.53,0-42.667,17.364-42.667,38.7v178.599c0,21.334,19.136,38.701,42.667,38.701
	h170.667c23.521,0,42.666-17.367,42.666-38.701V41.528C254.081,20.192,234.936,2.828,211.413,2.828z M40.133,20.548h92.597
	c6.845,0,12.391,11.177,12.391,25.011c0,13.784-5.546,24.989-12.391,24.989H40.133c-6.841,0-12.389-11.201-12.389-24.989
	C27.745,31.725,33.29,20.548,40.133,20.548z M215.338,244.17H40.133c-6.841,0-12.389-11.198-12.389-25.001
	c0-13.804,5.545-24.999,12.389-24.999h175.206c6.844,0,12.405,11.195,12.405,24.999C227.744,232.972,222.183,244.17,215.338,244.17z
	 M215.338,157.36H40.133c-6.841,0-12.389-11.188-12.389-24.996c0-13.808,5.545-25.004,12.389-25.004h175.206
	c6.844,0,12.405,11.196,12.405,25.004C227.744,146.173,222.183,157.36,215.338,157.36z"/>
</svg>
