<?xml version="1.0" encoding="utf-8"?>
<!-- Generator: Adobe Illustrator 16.0.0, SVG Export Plug-In . SVG Version: 6.00 Build 0)  -->
<!DOCTYPE svg PUBLIC "-//W3C//DTD SVG 1.1//EN" "http://www.w3.org/Graphics/SVG/1.1/DTD/svg11.dtd" [
	<!ENTITY st0 "fill:#231815;">
]>
<svg version="1.1" id="图层_1" xmlns="http://www.w3.org/2000/svg" xmlns:xlink="http://www.w3.org/1999/xlink" x="0px" y="0px"
	 width="200px" height="200px" viewBox="0 0 200 200" style="enable-background:new 0 0 200 200;" xml:space="preserve">
<path style="&st0;" d="M168.405,159.911h22.167c4.711,0,8.967,3.778,8.967,8.956v22.166c0,4.723-3.777,8.967-8.967,8.967h-22.167
	c-4.946,0.006-8.96-3.998-8.966-8.944c0-0.007,0-0.015,0-0.022v-8.955h-4.245c-12.229,0.012-22.154-9.893-22.167-22.123
	c0-0.014,0-0.029,0-0.044v-35.378H110.85v44.334c0,4.722-3.777,8.967-8.955,8.967H8.972c-4.946,0.006-8.96-3.999-8.967-8.945
	c0-0.008,0-0.015,0-0.021v-93.4c0-4.711,3.778-8.956,8.967-8.956h44.333V26.889H8.972c-4.784,0.169-8.798-3.572-8.967-8.355
	c-0.007-0.204-0.007-0.407,0-0.611V8.967C0.005,4.245,3.783,0,8.972,0h181.588c4.711,0,8.967,3.778,8.967,8.967v8.956
	c0,4.722-3.777,8.966-8.967,8.966H57.55v40.089h44.333c4.723,0,8.967,3.778,8.967,8.967v43.866h22.178V84.434
	c0-12.267,9.9-22.167,22.167-22.167h4.245V53.3c0-4.711,3.777-8.956,8.966-8.956h22.167c4.711,0,8.967,3.778,8.967,8.956v22.167
	c0,4.722-3.777,8.967-8.967,8.967h-22.167c-4.946,0.006-8.96-3.999-8.966-8.945c0-0.007,0-0.015,0-0.022v-8.956h-4.245
	c-9.911,0-17.923,8.022-17.923,17.922v35.377h22.168v-8.967c0-4.711,3.777-8.955,8.966-8.955h22.167
	c4.711,0,8.967,3.777,8.967,8.955v22.179c0,4.711-3.777,8.955-8.967,8.955h-22.167c-4.946,0.007-8.96-3.998-8.966-8.944
	c0-0.004,0-0.008,0-0.011v-8.489h-22.168v35.378c0,9.899,8.012,17.923,17.923,17.923h4.245v-8.967
	C159.439,163.678,163.684,159.911,168.405,159.911L168.405,159.911z"/>
</svg>
