<?xml version="1.0" encoding="utf-8"?>
<!-- Generator: Adobe Illustrator 16.0.0, SVG Export Plug-In . SVG Version: 6.00 Build 0)  -->
<!DOCTYPE svg PUBLIC "-//W3C//DTD SVG 1.1//EN" "http://www.w3.org/Graphics/SVG/1.1/DTD/svg11.dtd" [
	<!ENTITY ns_extend "http://ns.adobe.com/Extensibility/1.0/">
	<!ENTITY ns_ai "http://ns.adobe.com/AdobeIllustrator/10.0/">
	<!ENTITY ns_graphs "http://ns.adobe.com/Graphs/1.0/">
	<!ENTITY ns_vars "http://ns.adobe.com/Variables/1.0/">
	<!ENTITY ns_imrep "http://ns.adobe.com/ImageReplacement/1.0/">
	<!ENTITY ns_sfw "http://ns.adobe.com/SaveForWeb/1.0/">
	<!ENTITY ns_custom "http://ns.adobe.com/GenericCustomNamespace/1.0/">
	<!ENTITY ns_adobe_xpath "http://ns.adobe.com/XPath/1.0/">
]>
<svg version="1.1" id="图层_1" xmlns:x="&ns_extend;" xmlns:i="&ns_ai;" xmlns:graph="&ns_graphs;"
	 xmlns="http://www.w3.org/2000/svg" xmlns:xlink="http://www.w3.org/1999/xlink" x="0px" y="0px" width="256px" height="256px"
	 viewBox="0 0 256 256" style="enable-background:new 0 0 256 256;" xml:space="preserve">
<metadata>
	<sfw  xmlns="&ns_sfw;">
		<slices></slices>
		<sliceSourceBounds  height="256" width="256" x="-0.5" y="0.5" bottomLeftOrigin="true"></sliceSourceBounds>
	</sfw>
</metadata>
<path d="M36.571,0C16.4,0,0,16.4,0,36.571v182.857C0,239.602,16.4,256,36.571,256h182.857C239.602,256,256,239.602,256,219.43
	V36.571C256,16.4,239.602,0,219.43,0H36.571z M42.149,80.052l13.391,62.719l13.39-62.719c1.042-4.828,4.04-8.145,7.459-8.145
	c3.421,0,6.418,3.268,7.462,8.145l13.39,62.719l13.389-62.719c1.303-6.145,5.702-9.559,9.84-7.56c4.138,2,6.385,8.535,5.05,14.729
	l-20.851,97.542c-1.044,4.827-4.04,8.145-7.461,8.145s-6.419-3.268-7.46-8.145L76.39,121.995L63,184.715
	c-1.043,4.828-4.041,8.146-7.461,8.146c-3.421,0-6.418-3.268-7.461-8.146L27.227,87.172c-1.303-6.146,0.944-12.729,5.05-14.729
	c4.105-2,8.503,1.414,9.839,7.559L42.149,80.052z M146.857,75.017h68.571c6.333,0,11.429,5.22,11.429,11.705
	c0,6.486-5.096,11.705-11.429,11.705h-57.144v31.213h41.905c6.334,0,11.428,5.218,11.428,11.706c0,6.486-5.094,11.704-11.428,11.704
	h-41.905v35.116c0,6.487-5.094,11.705-11.428,11.705c-6.335,0-11.429-5.218-11.429-11.705v-46.819V86.723
	C135.429,80.236,140.523,75.017,146.857,75.017z"/>
</svg>
