<?xml version="1.0" encoding="utf-8"?>
<!-- Generator: Adobe Illustrator 16.0.0, SVG Export Plug-In . SVG Version: 6.00 Build 0)  -->
<!DOCTYPE svg PUBLIC "-//W3C//DTD SVG 1.1//EN" "http://www.w3.org/Graphics/SVG/1.1/DTD/svg11.dtd" [
	<!ENTITY ns_extend "http://ns.adobe.com/Extensibility/1.0/">
	<!ENTITY ns_ai "http://ns.adobe.com/AdobeIllustrator/10.0/">
	<!ENTITY ns_graphs "http://ns.adobe.com/Graphs/1.0/">
	<!ENTITY ns_vars "http://ns.adobe.com/Variables/1.0/">
	<!ENTITY ns_imrep "http://ns.adobe.com/ImageReplacement/1.0/">
	<!ENTITY ns_sfw "http://ns.adobe.com/SaveForWeb/1.0/">
	<!ENTITY ns_custom "http://ns.adobe.com/GenericCustomNamespace/1.0/">
	<!ENTITY ns_adobe_xpath "http://ns.adobe.com/XPath/1.0/">
	<!ENTITY st0 "fill:#231815;">
	<!ENTITY st1 "fill:none;">
]>
<svg version="1.1" id="图层_1" xmlns:x="&ns_extend;" xmlns:i="&ns_ai;" xmlns:graph="&ns_graphs;"
	 xmlns="http://www.w3.org/2000/svg" xmlns:xlink="http://www.w3.org/1999/xlink" x="0px" y="0px" width="256px" height="256px"
	 viewBox="0 0 256 256" style="enable-background:new 0 0 256 256;" xml:space="preserve">
<metadata>
	<sfw  xmlns="&ns_sfw;">
		<slices></slices>
		<sliceSourceBounds  width="224" height="224" y="16.5" x="15.5" bottomLeftOrigin="true"></sliceSourceBounds>
	</sfw>
</metadata>
<g>
	<path style="&st1;" d="M109.98,69.113c-3.061-2.832-6.576-4.849-10.548-6.055c-3.972-1.204-10.092-1.807-18.361-1.807
		c-3.125,0-7.846,0.065-14.162,0.195c-6.316,0.131-11.003,0.195-14.064,0.195c-5.078,0-11.687-0.064-19.826-0.195v10.645
		c0,2.539-0.034,5.112-0.098,7.715l-0.389,16.406l-3.12,76.367l-1.657,22.168c5.147-0.13,8.275-0.195,9.383-0.195l9.089,0.195
		v-11.035c0-5.143,0.226-15.332,0.681-30.566l1.361-40.137c0.324-11.653,0.876-24.609,1.654-38.867l7.617,0.098l10.254-0.195h8.203
		c5.273,0,9.292,0.293,12.061,0.879c2.767,0.586,5.24,1.709,7.422,3.369c2.181,1.66,3.89,3.906,5.127,6.738
		c1.236,2.832,1.855,5.908,1.855,9.229c0,4.233-0.847,8.237-2.539,12.012c-1.693,3.776-4.069,6.918-7.129,9.424
		c-3.061,2.507-6.723,4.297-10.986,5.371c-4.265,1.074-8.74,1.611-13.428,1.611c-4.819,0-9.766-0.488-14.844-1.465
		c1.236,3.646,2.344,7.715,3.32,12.207c5.728,1.042,10.938,1.563,15.625,1.563c8.853,0,16.878-1.611,24.072-4.834
		c7.193-3.223,12.874-8.105,17.041-14.648c4.166-6.543,6.25-13.916,6.25-22.119c0-5.013-0.879-9.603-2.637-13.77
		C115.451,75.446,113.042,71.945,109.98,69.113z"/>
	<path style="&st1;" d="M187.147,61.545c-15.424,0-30.49-0.032-45.196-0.098c0,4.883-0.033,9.213-0.098,12.988l-0.296,14.941
		l-2.751,68.652l-2.457,36.719l46.484-0.195c10.807,0,24.056,0.065,39.746,0.195c0.13-4.361,0.423-8.951,0.879-13.77
		c-8.078,0.456-15.129,0.749-21.153,0.879c-6.025,0.131-18.256,0.195-36.689,0.195l-10.161-0.098l1.771-48.242
		c11.722-0.26,20.873-0.391,27.451-0.391l33.605,0.293c0.13-4.427,0.423-8.919,0.879-13.477c-14.065,0.261-25.429,0.391-34.09,0.391
		c-7.945,0-16.931-0.098-26.959-0.293l1.771-45.703c6.055-0.195,16.764-0.293,32.129-0.293c5.143,0,10.335,0.034,15.576,0.098
		c5.24,0.065,8.936,0.163,11.084,0.293l8.691,0.488c0.13-4.59,0.423-9.146,0.879-13.672h-9.956L187.147,61.545z"/>
	<path style="&st0;" d="M208,16H48c-17.65,0-32,14.35-32,32v160c0,17.65,14.35,32,32,32h160c17.65,0,32-14.35,32-32V48
		C240,30.35,225.65,16,208,16z M113.596,115.5c-4.167,6.543-9.848,11.426-17.041,14.648c-7.194,3.223-15.219,4.834-24.072,4.834
		c-4.688,0-9.897-0.521-15.625-1.563c-0.977-4.492-2.084-8.561-3.32-12.207c5.078,0.977,10.025,1.465,14.844,1.465
		c4.688,0,9.163-0.537,13.428-1.611c4.263-1.074,7.925-2.864,10.986-5.371c3.06-2.505,5.436-5.647,7.129-9.424
		c1.692-3.775,2.539-7.779,2.539-12.012c0-3.32-0.619-6.396-1.855-9.229c-1.237-2.832-2.946-5.078-5.127-6.738
		c-2.182-1.66-4.655-2.783-7.422-3.369c-2.768-0.586-6.787-0.879-12.061-0.879h-8.203L57.541,74.24l-7.617-0.098
		c-0.778,14.258-1.331,27.214-1.654,38.867l-1.361,40.137c-0.455,15.234-0.681,25.424-0.681,30.566v11.035l-9.089-0.195
		c-1.108,0-4.236,0.065-9.383,0.195l1.657-22.168l3.12-76.367l0.389-16.406c0.064-2.603,0.098-5.176,0.098-7.715V61.447
		c8.139,0.131,14.748,0.195,19.826,0.195c3.061,0,7.749-0.064,14.064-0.195c6.315-0.13,11.037-0.195,14.162-0.195
		c8.269,0,14.389,0.603,18.361,1.807c3.972,1.206,7.487,3.223,10.548,6.055c3.062,2.832,5.471,6.333,7.229,10.498
		c1.758,4.167,2.637,8.757,2.637,13.77C119.846,101.584,117.762,108.957,113.596,115.5z M227.365,75.119l-8.691-0.488
		c-2.148-0.13-5.844-0.228-11.084-0.293c-5.241-0.064-10.434-0.098-15.576-0.098c-15.365,0-26.074,0.098-32.129,0.293l-1.771,45.703
		c10.028,0.195,19.014,0.293,26.959,0.293c8.661,0,20.024-0.13,34.09-0.391c-0.456,4.558-0.749,9.05-0.879,13.477l-33.605-0.293
		c-6.578,0-15.729,0.131-27.451,0.391l-1.771,48.242l10.161,0.098c18.434,0,30.664-0.064,36.689-0.195
		c6.024-0.13,13.075-0.423,21.153-0.879c-0.456,4.818-0.749,9.408-0.879,13.77c-15.69-0.13-28.939-0.195-39.746-0.195l-46.484,0.195
		l2.457-36.719l2.751-68.652l0.296-14.941c0.064-3.775,0.098-8.105,0.098-12.988c14.706,0.065,29.772,0.098,45.196,0.098
		l31.141-0.098h9.956C227.788,65.973,227.495,70.529,227.365,75.119z"/>
</g>
</svg>
