<?xml version="1.0" encoding="utf-8"?>
<!-- Generator: Adobe Illustrator 16.0.0, SVG Export Plug-In . SVG Version: 6.00 Build 0)  -->
<!DOCTYPE svg PUBLIC "-//W3C//DTD SVG 1.1//EN" "http://www.w3.org/Graphics/SVG/1.1/DTD/svg11.dtd" [
	<!ENTITY st0 "fill:#FAFAFC;">
	<!ENTITY st1 "fill:#FCFCFC;">
]>
<svg version="1.1" id="图层_1" xmlns="http://www.w3.org/2000/svg" xmlns:xlink="http://www.w3.org/1999/xlink" x="0px" y="0px"
	 width="200px" height="200px" viewBox="0 0 200 200" style="enable-background:new 0 0 200 200;" xml:space="preserve">
<path d="M184.595,49.434c-1.448-2.015-3.578-3.472-6.206-4.522c0.105,2.418-0.043,4.404-0.525,5.994l-31.559,103.828
	c-1.122,3.69-5.468,5.991-9.571,5.991H39.642c-8.417,0-13.409-2.439-15.151-7.362c-0.677-1.912-0.655-3.382,0.106-4.522
	c0.713-1.068,2.104-1.578,4-1.578h91.411c6.521,0,11.017-1.184,13.466-3.575c2.497-2.446,5.056-7.885,7.572-16.201l28.823-95.303
	c1.561-5.159,0.947-9.784-1.895-13.675c-2.84-3.894-6.837-5.891-11.99-5.891H75.93c-0.946,0-2.734,0.315-5.366,0.947l0.107-0.316
	C57.205,9.46,56.619,23.903,52.051,30.395c-1.426,2.031-4.289,5.054-4.628,6.522c-0.291,1.266,0.656,4.313,0.528,5.469
	c-0.292,2.634-1.308,6.082-2.947,10.2c-1.624,4.085-3.051,7.054-4.419,8.838l-2.313,2.419c-1.184,1.238-2,2.209-2.313,3.156
	c-0.319,0.315-0.371,1.375-0.106,2.944c0.264,1.591,0.404,2.735,0.316,3.369c-0.334,2.417-1.156,5.576-2.631,9.466
	c-1.472,3.894-2.969,7.138-4.416,9.679c-0.234,0.409-0.844,1.263-1.791,2.418c-0.944,1.157-1.582,2.207-1.788,2.947
	c-0.322,1.153,0.422,4.731,0,6.101c-0.525,2.627-1.557,5.898-3.156,9.674c-1.557,3.69-3.148,6.95-4.735,9.578
	c-1.463,2.422-4.164,5.153-4.31,7.15c-0.063,0.85,0.756,3.156,0.628,4.31l-0.418,3.897c-0.17,1.584-0.316,2.525-0.316,2.84
	c-1.578,4.207-1.496,8.632,0.209,13.36c1.976,5.476,5.479,10.089,10.416,13.779c5.057,3.774,10.307,5.682,15.673,5.682h97.092
	c4.522,0,8.816-1.603,12.836-4.632c4.082-3.077,6.725-6.731,8.1-11.254l28.926-95.306C188.025,57.943,187.46,53.413,184.595,49.434z
	"/>
<path style="&st0;" d="M66.148,69.841c0.58-1.773,2.632-3.366,4.416-3.366h63.959c1.997,0,2.896,1.593,2.313,3.366l-2.206,6.731
	c-0.583,1.772-2.632,3.366-4.419,3.366H66.252c-1.997,0-2.896-1.593-2.313-3.366L66.148,69.841z"/>
<path style="&st1;" d="M74.877,42.912c0.583-1.773,2.631-3.366,4.419-3.366h63.959c2,0,2.895,1.593,2.313,3.366l-2.209,6.731
	c-0.58,1.772-2.633,3.369-4.417,3.369H74.984c-1.997,0-2.896-1.597-2.313-3.369L74.877,42.912z"/>
</svg>
