<?xml version="1.0" encoding="utf-8"?>
<!-- Generator: Adobe Illustrator 16.0.0, SVG Export Plug-In . SVG Version: 6.00 Build 0)  -->
<!DOCTYPE svg PUBLIC "-//W3C//DTD SVG 1.1//EN" "http://www.w3.org/Graphics/SVG/1.1/DTD/svg11.dtd">
<svg version="1.1" id="图层_1" xmlns="http://www.w3.org/2000/svg" xmlns:xlink="http://www.w3.org/1999/xlink" x="0px" y="0px"
	 width="200px" height="200px" viewBox="0 0 200 200" style="enable-background:new 0 0 200 200;" xml:space="preserve">
<path d="M103.788,187.714c1.205-0.169,2.363-0.579,3.352-1.254c1.567-0.917,3.038-1.953,4.413-3.135
	c1.326-1.133,2.58-2.339,3.737-3.617c0.844-0.723,1.398-1.688,1.615-2.748c0.121-1.423,0.121-2.846,0-4.244
	c0-2.001-0.94-4.243-1.471-6.51c-0.53-2.242-1.205-4.75-1.736-7.113c-0.53-2.362-1.061-4.243-1.471-5.617
	c1.062-0.989,2.002-2.074,2.797-3.256c0.917-1.108,1.447-2.459,1.472-3.882c-0.049-1.182-0.459-2.314-1.206-3.255
	c-0.724-1.085-1.64-2.05-2.677-2.869l-3.617-2.749H98.435c-1.278,0.82-2.483,1.736-3.617,2.749c-0.868,0.819-1.64,1.76-2.267,2.749
	c-0.651,0.94-1.037,2.001-1.061,3.134c0.168,1.182,0.748,2.267,1.616,3.135c1.133,1.398,2.435,2.652,3.882,3.762l-1.736,5.136
	c-0.675,2.242-1.326,4.629-2.001,7.112c-0.675,2.508-1.206,4.75-1.736,6.993c-0.386,1.591-0.627,3.23-0.675,4.87
	c0.217,1.061,0.772,2.001,1.616,2.749c1.182,1.326,2.459,2.531,3.882,3.616c1.398,1.134,2.87,2.17,4.413,3.135
	C101.642,187.159,102.703,187.545,103.788,187.714z M200.073,167.966v3.762c0.289,2.966,0.072,5.979-0.676,8.873
	c-0.313,2.242-1.085,4.412-2.267,6.365c-1.736,1.495-3.858,2.532-6.148,2.99c-28.213,7.112-57.318,10.561-86.52,10.247
	c-29.973-0.048-59.897-2.725-89.34-8.005c-3.858-0.555-7.596-1.664-11.092-3.255c-1.616-1.134-2.797-4.364-3.472-9.741
	c-0.699-5.088-0.386-10.271,0.94-15.238c0.555-4.34,2.845-8.318,6.414-11.115c3.617-2.629,7.692-4.654,12.033-6.004
	c4.678-1.495,26.066-8.367,31.034-9.5c4.727-0.988,9.26-2.725,13.383-5.136c2.532-1.374,4.871-3.063,6.945-4.991
	c2.845-2.531,4.461-6.076,4.413-9.741v-5.618c-0.072-2.772-1.278-5.4-3.352-7.378c-1.881-1.76-4.003-3.496-6.559-5.376
	c-1.254-1.085-2.243-2.411-2.942-3.882c-1.567-1.326-2.484-3.158-2.532-5.136l-2.676-6.124c-1.061-0.29-2.05-0.748-2.942-1.375
	c-1.037-0.82-1.978-1.736-2.797-2.749c-1.157-1.398-2.049-2.966-2.676-4.629c-0.675-1.977-0.917-4.051-0.675-6.125
	c0.072-1.76,0.434-3.472,1.061-5.136c0.579-1.543,1.447-2.99,2.532-4.244c-0.121-5.063,0.193-10.103,0.94-15.118
	c0.627-4.581,1.664-9.09,3.086-13.502c1.471-4.46,3.666-8.68,6.559-12.49c2.483-3.521,5.546-6.631,9.091-9.259
	c3.086-2.218,6.462-4.075,10.031-5.498c3.352-1.278,6.849-2.194,10.441-2.749c3.304-0.53,6.679-0.82,10.031-0.868
	c3.883,0,7.741,0.458,11.503,1.375c3.761,0.868,7.45,2.098,10.971,3.617c3.063,1.35,5.98,2.99,8.682,4.871
	c2.29,1.567,4.364,3.424,6.148,5.497c3.521,4.196,6.245,8.921,8.03,14.009c1.712,4.678,2.966,9.476,3.737,14.371
	c0.844,5.256,1.205,10.561,1.061,15.865c1.013,0.555,1.809,1.375,2.267,2.363c0.651,1.133,1.086,2.363,1.326,3.617
	c0.313,1.784,0.313,3.592,0,5.376c-0.289,2.291-0.964,4.533-2.001,6.631c-0.771,1.447-1.809,2.773-3.087,3.882
	c-1.157,0.989-2.531,1.712-4.003,2.122c0,2.122-1.205,4.244-1.88,6.124c-0.676,1.881-1.616,3.375-2.412,4.991
	c-0.771,1.447-1.809,2.773-3.086,3.882c-1.134,0.94-2.339,1.833-3.617,2.628c-1.062,0.651-2.05,1.423-2.942,2.242
	c-0.892,0.82-1.615,1.809-2.146,2.87c-0.627,1.326-1.085,2.7-1.326,4.123c-0.266,2.025-0.266,4.099,0,6.124
	c0.169,2.122,0.747,4.195,1.736,6.124c1.182,2.267,2.869,4.268,4.942,5.884c2.749,2.121,5.884,3.81,9.236,4.99
	c3.785,1.398,7.668,2.58,11.622,3.497c4.147,0.988,21.124,7.739,25.006,9.113c3.714,1.303,7.21,3.063,10.441,5.257
	c2.941,2.218,5.16,5.16,6.414,8.487C199.663,162.758,200.024,165.362,200.073,167.966z"/>
</svg>
