<?xml version="1.0" encoding="utf-8"?>
<!-- Generator: Adobe Illustrator 16.0.0, SVG Export Plug-In . SVG Version: 6.00 Build 0)  -->
<!DOCTYPE svg PUBLIC "-//W3C//DTD SVG 1.1//EN" "http://www.w3.org/Graphics/SVG/1.1/DTD/svg11.dtd" [
	<!ENTITY ns_extend "http://ns.adobe.com/Extensibility/1.0/">
	<!ENTITY ns_ai "http://ns.adobe.com/AdobeIllustrator/10.0/">
	<!ENTITY ns_graphs "http://ns.adobe.com/Graphs/1.0/">
	<!ENTITY ns_vars "http://ns.adobe.com/Variables/1.0/">
	<!ENTITY ns_imrep "http://ns.adobe.com/ImageReplacement/1.0/">
	<!ENTITY ns_sfw "http://ns.adobe.com/SaveForWeb/1.0/">
	<!ENTITY ns_custom "http://ns.adobe.com/GenericCustomNamespace/1.0/">
	<!ENTITY ns_adobe_xpath "http://ns.adobe.com/XPath/1.0/">
]>
<svg version="1.1" id="图层_1" xmlns:x="&ns_extend;" xmlns:i="&ns_ai;" xmlns:graph="&ns_graphs;"
	 xmlns="http://www.w3.org/2000/svg" xmlns:xlink="http://www.w3.org/1999/xlink" x="0px" y="0px" width="256px" height="256px"
	 viewBox="0 0 256 256" style="enable-background:new 0 0 256 256;" xml:space="preserve">
<metadata>
	<sfw  xmlns="&ns_sfw;">
		<slices></slices>
		<sliceSourceBounds  height="256" width="256" x="-0.5" y="0.5" bottomLeftOrigin="true"></sliceSourceBounds>
	</sfw>
</metadata>
<path d="M224,128c0,20.95-6.7,40.3-18.1,56.1C193.65,185.15,184,195.45,184,208c0,13.25,10.75,24,24,24s24-10.75,24-24
	c0-1.6-0.15-3.2-0.45-4.7C246.9,182.15,256,156.15,256,128C256,57.3,198.7,0,128,0c-21.15,0-41.05,5.1-58.6,14.2
	c9.3,5.9,16,15.55,18,26.8c12.3-5.8,26.1-9,40.6-9C181,32,224,75,224,128z M128,224c-53,0-96-43-96-96c0-20.95,6.7-40.3,18.1-56.1
	C62.35,70.85,72,60.55,72,48c0-13.25-10.75-24-24-24S24,34.75,24,48c0,1.6,0.15,3.2,0.45,4.7C9.1,73.85,0,99.85,0,128
	c0,70.7,57.3,128,128,128c21.05,0,40.85-5.05,58.4-14.05c-9.25-5.95-15.9-15.65-17.801-26.9C156.25,220.8,142.5,224,128,224z
	 M194.6,91.35c0.9-2.3,1.4-4.75,1.4-7.35c0-11.05-8.95-20-20-20c-2,0-3.9,0.3-5.75,0.85C158.2,56.75,143.65,52,128,52
	c-41.95,0-76,34.05-76,76s34.05,76,76,76s76-34.05,76-76C204,114.7,200.6,102.25,194.6,91.35z M156,84.2c0.1,10.3,8,18.8,18.1,19.75
	c3.75,7.2,5.9,15.4,5.9,24.1c0,28.7-23.3,52-52,52s-52-23.3-52-52c0-28.7,23.3-52,52-52c10.3,0,19.9,3,28,8.2V84.2z M160,128
	c0-17.673-14.326-32-32-32c-17.673,0-32,14.327-32,32s14.327,32,32,32C145.674,160,160,145.673,160,128z"/>
</svg>
