<?xml version="1.0" encoding="iso-8859-1"?>
<!-- Generator: Adobe Illustrator 16.0.0, SVG Export Plug-In . SVG Version: 6.00 Build 0)  -->
<!DOCTYPE svg PUBLIC "-//W3C//DTD SVG 1.1//EN" "http://www.w3.org/Graphics/SVG/1.1/DTD/svg11.dtd" [
	<!ENTITY st0 "fill:#333333;">
]>
<svg version="1.1" id="&#x56FE;&#x5C42;_1" xmlns="http://www.w3.org/2000/svg" xmlns:xlink="http://www.w3.org/1999/xlink" x="0px"
	 y="0px" width="256px" height="256px" viewBox="0 0 256 256" style="enable-background:new 0 0 256 256;" xml:space="preserve">
<path style="&st0;" d="M91.532,9.498H25.124c-12.166,0-22.127,9.961-22.127,22.154V98.06c0,12.166,9.961,22.127,22.127,22.127
	h66.408c12.166,0,22.126-9.961,22.126-22.127V31.652C113.686,19.458,103.725,9.498,91.532,9.498z M91.532,142.313H25.124
	c-12.166,0-22.127,9.961-22.127,22.154v66.408c0,12.166,9.961,22.127,22.127,22.127h66.408c12.166,0,22.126-9.961,22.126-22.127
	v-66.408C113.686,152.274,103.725,142.313,91.532,142.313z M224.349,142.313H157.94c-12.166,0-22.127,9.961-22.127,22.127v66.408
	c0,12.165,9.961,22.126,22.127,22.126h66.408c12.165,0,22.127-9.961,22.127-22.126V164.44
	C246.503,152.274,236.542,142.313,224.349,142.313z M246.531,49.203L206.797,9.469c-8.621-8.622-22.684-8.622-31.307,0
	l-39.732,39.733c-8.622,8.622-8.622,22.685,0,31.307l39.732,39.733c8.623,8.623,22.686,8.623,31.307,0l39.734-39.733
	C255.152,71.888,255.152,57.797,246.531,49.203L246.531,49.203z"/>
</svg>
