<?xml version="1.0" encoding="utf-8"?>
<!-- Generator: Adobe Illustrator 16.0.0, SVG Export Plug-In . SVG Version: 6.00 Build 0)  -->
<!DOCTYPE svg PUBLIC "-//W3C//DTD SVG 1.1//EN" "http://www.w3.org/Graphics/SVG/1.1/DTD/svg11.dtd" [
	<!ENTITY st0 "fill:#231815;">
]>
<svg version="1.1" id="图层_1" xmlns="http://www.w3.org/2000/svg" xmlns:xlink="http://www.w3.org/1999/xlink" x="0px" y="0px"
	 width="200px" height="200px" viewBox="0 0 200 200" style="enable-background:new 0 0 200 200;" xml:space="preserve">
<path style="&st0;" d="M185.006,0H14.995C6.704,0,0,5.978,0,13.328v173.344C0,194.042,6.726,200,14.995,200h170.011
	c8.291,0,14.994-5.979,14.994-13.328V13.328C200,5.958,193.297,0,185.006,0z M79.89,79.341c0,7.821-5.116,14.622-12.502,17.895
	v63.328c0,4.606-4.19,8.33-9.372,8.33h-1.257c-5.182,0-9.372-3.724-9.372-8.33V97.236C40,93.943,34.884,87.142,34.884,79.341v-9.996
	c0-7.82,5.116-14.622,12.503-17.895V39.436c0-4.606,4.189-8.33,9.372-8.33h1.257c5.182,0,9.372,3.724,9.372,8.33v11.995
	c7.387,3.293,12.502,10.094,12.502,17.895V79.341z M165.116,130.674c0,7.821-5.116,14.622-12.503,17.896v11.995
	c0,4.606-4.189,8.33-9.372,8.33h-1.257c-5.182,0-9.371-3.724-9.371-8.33v-11.995c-7.388-3.293-12.503-10.094-12.503-17.896v-9.996
	c0-7.82,5.115-14.621,12.503-17.895V39.436c0-4.606,4.189-8.33,9.371-8.33h1.257c5.183,0,9.372,3.724,9.372,8.33v63.328
	c7.387,3.293,12.503,10.094,12.503,17.895V130.674z"/>
</svg>
