<?xml version="1.0" encoding="utf-8"?>
<!-- Generator: Adobe Illustrator 16.0.0, SVG Export Plug-In . SVG Version: 6.00 Build 0)  -->
<!DOCTYPE svg PUBLIC "-//W3C//DTD SVG 1.1//EN" "http://www.w3.org/Graphics/SVG/1.1/DTD/svg11.dtd" [
	<!ENTITY st0 "fill:#333333;">
]>
<svg version="1.1" id="图层_1" xmlns="http://www.w3.org/2000/svg" xmlns:xlink="http://www.w3.org/1999/xlink" x="0px" y="0px"
	 width="200px" height="200px" viewBox="0 0 200 200" style="enable-background:new 0 0 200 200;" xml:space="preserve">
<path style="&st0;" d="M191.051,142.802h-12.623v-28.195c0-7.791-6.646-14.131-14.785-14.131h-56.869V71.388h20.228
	c4.906,0,8.921-4.018,8.921-8.93V8.881c0-4.912-4.015-8.93-8.921-8.93H73.478c-4.906,0-8.92,4.018-8.92,8.93v53.577
	c0,4.912,4.014,8.93,8.92,8.93h19.469v29.088H36.413c-8.162,0-14.786,6.34-14.786,14.131v28.195H8.804
	c-4.907,0-8.921,4.019-8.921,8.93v39.29c0,4.911,4.014,8.93,8.921,8.93h39.25c4.906,0,8.921-4.019,8.921-8.93v-39.29
	c0-4.911-4.015-8.93-8.921-8.93H35.432v-28.105c0.089-0.134,0.424-0.38,0.959-0.38h56.534v28.485H80.369
	c-4.906,0-8.92,4.019-8.92,8.93v39.29c0,4.911,4.014,8.93,8.92,8.93h39.25c4.906,0,8.921-4.019,8.921-8.93v-39.29
	c0-4.911-4.015-8.93-8.921-8.93h-12.89v-28.485h56.846c0.535,0,0.87,0.246,0.959,0.38v28.105h-12.823c-4.906,0-8.92,4.019-8.92,8.93
	v39.29c0,4.911,4.014,8.93,8.92,8.93h39.251c4.906,0,8.92-4.019,8.92-8.93v-39.29C199.971,146.82,195.957,142.802,191.051,142.802z"
	/>
</svg>
