<?xml version="1.0" encoding="iso-8859-1"?>
<!-- Generator: Adobe Illustrator 16.0.0, SVG Export Plug-In . SVG Version: 6.00 Build 0)  -->
<!DOCTYPE svg PUBLIC "-//W3C//DTD SVG 1.1//EN" "http://www.w3.org/Graphics/SVG/1.1/DTD/svg11.dtd">
<svg version="1.1" id="&#x56FE;&#x5C42;_1" xmlns="http://www.w3.org/2000/svg" xmlns:xlink="http://www.w3.org/1999/xlink" x="0px"
	 y="0px" width="256px" height="256px" viewBox="0 0 256 256" style="enable-background:new 0 0 256 256;" xml:space="preserve">
<path d="M146.744,239.828h-75v-12.211c0.078-3.535,2.937-6.377,6.474-6.433c10.633-0.265,21.137-2.397,31.033-6.298v-24.743H15.5
	c-6.875,0-12.46-5.551-12.5-12.427V28.593c0.043-6.873,5.628-12.421,12.5-12.421h225c6.872,0,12.457,5.548,12.5,12.421v149.124
	c-0.041,6.876-5.625,12.427-12.5,12.427h-93.75v24.743c9.893,3.91,20.398,6.043,31.033,6.298c3.539,0.041,6.403,2.894,6.46,6.433
	v12.211H146.744z M69.266,162.771c3.021,10.386,12.538,17.53,23.355,17.535c10.812-0.014,20.319-7.155,23.343-17.535h129.03v-13.169
	h-129.03c-3.02-10.382-12.53-17.527-23.343-17.535c-10.817,0.007-20.331,7.151-23.355,17.535H52.994v13.169H69.266z
	 M139.849,110.137c3.021,10.39,12.534,17.538,23.354,17.548c10.817-0.017,20.33-7.164,23.356-17.548h16.435V96.971H186.56
	c-3.028-10.383-12.539-17.526-23.356-17.537c-10.813,0.011-20.327,7.154-23.354,17.537H15.994v13.166H139.849z M69.266,57.516
	c3.018,10.389,12.537,17.537,23.355,17.537c10.813-0.01,20.323-7.154,23.343-17.537h129.03V44.349h-129.03
	c-3.016-10.387-12.526-17.537-23.343-17.548C81.8,26.807,72.282,33.957,69.266,44.349H52.994v13.167H69.266z M92.621,167.163
	c-6.071,0.008-11.003-4.9-11.029-10.97c0.025-6.072,4.958-10.979,11.029-10.972c6.069-0.007,10.997,4.903,11.016,10.972
	c-0.012,6.072-4.942,10.987-11.016,10.982V167.163z M163.203,114.519c-6.07,0.02-11.015-4.885-11.039-10.959
	c0.024-6.074,4.965-10.982,11.039-10.97c6.07-0.007,11.002,4.9,11.027,10.97c-0.017,6.07-4.945,10.978-11.017,10.971
	L163.203,114.519z M92.621,61.886c-6.071,0.006-11.003-4.9-11.029-10.971c0.025-6.071,4.958-10.977,11.029-10.971
	c6.069-0.006,10.997,4.902,11.016,10.971c-0.006,6.078-4.938,11-11.016,10.993l0,0V61.886z"/>
</svg>
