<?xml version="1.0" encoding="iso-8859-1"?>
<!-- Generator: Adobe Illustrator 16.0.0, SVG Export Plug-In . SVG Version: 6.00 Build 0)  -->
<!DOCTYPE svg PUBLIC "-//W3C//DTD SVG 1.1//EN" "http://www.w3.org/Graphics/SVG/1.1/DTD/svg11.dtd">
<svg version="1.1" id="&#x56FE;&#x5C42;_1" xmlns="http://www.w3.org/2000/svg" xmlns:xlink="http://www.w3.org/1999/xlink" x="0px"
	 y="0px" width="256px" height="256px" viewBox="0 0 256 256" style="enable-background:new 0 0 256 256;" xml:space="preserve">
<path d="M226.684,3H29.316C14.777,3,3,14.777,3,29.316V68.79h250V29.316C253,14.777,241.224,3,226.684,3z M3,88.526v138.157
	C3,241.224,14.777,253,29.316,253h197.368c14.54,0,26.316-11.776,26.316-26.316V88.526H3z M88.921,193.064
	c3.882,3.882,3.882,10.133,0,13.947c-3.881,3.883-10.131,3.883-13.947,0l-32.565-32.564c-3.851-3.806-3.889-10.012-0.084-13.862
	c0.028-0.028,0.056-0.058,0.084-0.085l32.565-32.566c3.805-3.851,10.011-3.89,13.863-0.084c0.028,0.028,0.057,0.056,0.084,0.084
	c3.882,3.882,3.882,10.131,0,13.948l-25.592,25.592L88.921,193.064z M146.553,127.671l-17.763,83.684
	c-1.119,5.328-6.382,8.75-11.711,7.632c-5.329-1.118-8.75-6.383-7.631-11.711l17.763-83.683c1.118-5.329,6.381-8.75,11.71-7.632
	C144.25,117.145,147.672,122.342,146.553,127.671z M213.592,174.447l-32.566,32.564c-3.881,3.883-10.131,3.883-13.947,0
	c-3.851-3.804-3.889-10.01-0.084-13.861c0.028-0.027,0.057-0.057,0.084-0.086l25.593-25.591l-25.593-25.592
	c-3.851-3.805-3.889-10.012-0.084-13.863c0.028-0.028,0.057-0.057,0.084-0.084c3.805-3.852,10.012-3.89,13.863-0.084
	c0.029,0.028,0.057,0.056,0.084,0.084l32.566,32.566C217.473,164.381,217.473,170.565,213.592,174.447z"/>
</svg>
