<?xml version="1.0" encoding="iso-8859-1"?>
<!-- Generator: Adobe Illustrator 16.0.0, SVG Export Plug-In . SVG Version: 6.00 Build 0)  -->
<!DOCTYPE svg PUBLIC "-//W3C//DTD SVG 1.1//EN" "http://www.w3.org/Graphics/SVG/1.1/DTD/svg11.dtd">
<svg version="1.1" id="&#x56FE;&#x5C42;_1" xmlns="http://www.w3.org/2000/svg" xmlns:xlink="http://www.w3.org/1999/xlink" x="0px"
	 y="0px" width="256px" height="256px" viewBox="768 347.5 256 256" style="enable-background:new 768 347.5 256 256;"
	 xml:space="preserve">
<path d="M768,570.104v-126.68c0-10.48,6.36-19.88,16.08-23.76l107.16-42.84c3.041-1.24,6.44-1.24,9.52,0l107.16,42.84
	c9.72,3.88,16.08,13.32,16.08,23.76v126.68c0,5.32-4.28,9.6-9.6,9.6h-19.2c-5.32,0-9.601-4.279-9.601-9.6v-105.6
	c0-7.08-5.72-12.8-12.8-12.8H819.2c-7.08,0-12.8,5.72-12.8,12.8v105.6c0,5.32-4.28,9.6-9.6,9.6h-19.2
	C772.28,579.703,768,575.424,768,570.104z M963.2,579.703H828.8c-5.32,0-9.6-4.279-9.6-9.6v-22.4h153.6v22.4
	C972.8,575.424,968.52,579.703,963.2,579.703z M819.2,534.904v-25.6h153.6v25.6H819.2z M819.2,496.504v-32h153.6v32H819.2z"/>
</svg>
